<svg enable-background="new 0 0 3710 3710" viewBox="0 0 3710 3710" xmlns="http://www.w3.org/2000/svg" xmlns:xlink="http://www.w3.org/1999/xlink"><linearGradient id="a" gradientUnits="userSpaceOnUse" x1="3349.1587" x2="1369.8389" y1="3185.761" y2="1453.8575"><stop offset="0" stop-color="#dae3fe"/><stop offset="1" stop-color="#e9effd"/></linearGradient><linearGradient id="b"><stop offset="0" stop-color="#09005d"/><stop offset="1" stop-color="#1a0f91"/></linearGradient><linearGradient id="c" gradientUnits="userSpaceOnUse" x1="603.5689" x2="4342.9922" xlink:href="#b" y1="830.681" y2="4143.6304"/><clipPath id="d"><path d="m795.16 1672.75 463.33-1049.35h1183.66l-246.36 931.58-1034.57 395.05c-183.54-39.7-313.02-148.06-366.06-277.28z"/></clipPath><linearGradient id="e" gradientTransform="matrix(.9987 -.0502 .0502 .9987 -4051.0757 -259.7591)" gradientUnits="userSpaceOnUse" x1="4746.1299" x2="4885.9658" xlink:href="#b" y1="3413.9082" y2="3413.9082"/><linearGradient id="f"><stop offset="0" stop-color="#febbba"/><stop offset="1" stop-color="#ff928e"/></linearGradient><linearGradient id="g" gradientTransform="matrix(.9987 -.0502 .0502 .9987 -4051.0757 -259.7591)" gradientUnits="userSpaceOnUse" x1="4760.3101" x2="4817.0244" xlink:href="#f" y1="3348.9272" y2="3348.9272"/><linearGradient id="h" gradientTransform="matrix(.9993 .037 -.037 .9993 -3893.1482 128.6885)" gradientUnits="userSpaceOnUse" x1="5144.0317" x2="5363.4346" xlink:href="#b" y1="2578.8354" y2="2578.8354"/><linearGradient id="i" gradientTransform="matrix(.9998 .0197 -.0197 .9998 -3933.3213 56.7691)" gradientUnits="userSpaceOnUse" x1="5149.9888" x2="5206.3892" xlink:href="#f" y1="2658.3081" y2="2658.3081"/><linearGradient id="j" gradientTransform="matrix(.9987 -.0502 .0502 .9987 -4051.0757 -259.7591)" gradientUnits="userSpaceOnUse" x1="4725.0464" x2="5109.5732" xlink:href="#b" y1="2823.4583" y2="2823.4583"/><linearGradient id="k"><stop offset="0" stop-color="#4f52ff"/><stop offset="1" stop-color="#4042e2"/></linearGradient><linearGradient id="l" gradientTransform="matrix(.9981 .062 -.062 .9981 401.7931 -7.284)" gradientUnits="userSpaceOnUse" x1="1586.4042" x2="984.3546" xlink:href="#k" y1="250.88" y2="1239.5688"/><linearGradient id="m" gradientTransform="matrix(.9981 .062 -.062 .9981 401.7931 -7.284)" gradientUnits="userSpaceOnUse" x1="1261.8158" x2="1786.5308" xlink:href="#f" y1="1051.3324" y2="692.3175"/><linearGradient id="n" gradientTransform="matrix(.9987 -.0502 .0502 .9987 -4051.0757 -259.7591)" gradientUnits="userSpaceOnUse" x1="5213.894" x2="5099.1543" xlink:href="#k" y1="1780.8832" y2="2867.5457"/><linearGradient id="o" gradientTransform="matrix(.9987 -.0502 .0502 .9987 -4051.0757 -259.7591)" gradientUnits="userSpaceOnUse" x1="5898.7876" x2="5445.8735" xlink:href="#f" y1="1717.9457" y2="2281.4143"/><linearGradient id="p" gradientTransform="matrix(.9987 -.0502 .0502 .9987 -4051.0757 -259.7591)" gradientUnits="userSpaceOnUse" x1="5984.6567" x2="5531.7354" xlink:href="#f" y1="1786.9583" y2="2350.4355"/><linearGradient id="q" gradientTransform="matrix(.9987 -.0502 .0502 .9987 -4051.0757 -259.7591)" gradientUnits="userSpaceOnUse" x1="5389.2432" x2="4950.6001" xlink:href="#f" y1="1377.4341" y2="2183.3982"/><linearGradient id="r" gradientTransform="matrix(.9962 -.086 .086 .9962 -12980.7959 76.4891)" gradientUnits="userSpaceOnUse" x1="14173.5898" x2="13933.3682" xlink:href="#f" y1="2183.531" y2="2367.3374"/><linearGradient id="s" gradientTransform="matrix(.9962 -.086 .086 .9962 -12980.7959 76.4891)" gradientUnits="userSpaceOnUse" x1="14004.4766" x2="14228.2197" y1="2037.9932" y2="2326.0618"><stop offset="0" stop-color="#e1473d"/><stop offset="1" stop-color="#e9605a"/></linearGradient><linearGradient id="t" gradientTransform="matrix(.9962 -.086 .086 .9962 -12980.7959 76.4891)" gradientUnits="userSpaceOnUse" x1="14143.791" x2="13903.5703" xlink:href="#f" y1="2144.594" y2="2328.3997"/><linearGradient id="u"><stop offset="0" stop-color="#2b3582"/><stop offset="1" stop-color="#150e42"/></linearGradient><linearGradient id="v" gradientTransform="matrix(.9981 .062 -.062 .9981 401.7931 -7.284)" gradientUnits="userSpaceOnUse" x1="1449.75" x2="1693.1956" xlink:href="#u" y1="671.9742" y2="671.9742"/><linearGradient id="w" gradientTransform="matrix(.9981 .062 -.062 .9981 401.7931 -7.284)" gradientUnits="userSpaceOnUse" x1="1380.4357" x2="1623.8812" xlink:href="#u" y1="670.6458" y2="670.6458"/><linearGradient id="x" gradientTransform="matrix(-.9684 -.2493 -.2493 .9684 2901.6458 344.8383)" gradientUnits="userSpaceOnUse" x1="-1886.8507" x2="1852.5789" xlink:href="#b" y1="566.0028" y2="3878.9575"/><clipPath id="y"><path d="m2103.37 2886.76-434.9-760.75 998.04-718.84 511.33 717.88-438.61 771.89c-151.52 100.08-375.14 101.71-635.86-10.18z"/></clipPath><linearGradient id="z" gradientUnits="userSpaceOnUse" x1="2573.3572" x2="2729.5378" xlink:href="#k" y1="1624.0374" y2="2364.6365"/><linearGradient id="A" gradientTransform="matrix(.9356 .353 -.353 .9356 1877.603 -34.4284)" gradientUnits="userSpaceOnUse" x1="675.3627" x2="954.4702" xlink:href="#f" y1="2360.0542" y2="2215.5164"/><linearGradient id="B" gradientTransform="matrix(.9356 .353 -.353 .9356 1877.603 -34.4284)" gradientUnits="userSpaceOnUse" x1="1325.3243" x2="1358.5511" xlink:href="#f" y1="1984.8177" y2="1748.908"/><linearGradient id="C" gradientTransform="matrix(.9356 .353 -.353 .9356 1877.603 -34.4284)" gradientUnits="userSpaceOnUse" x1="1173.0005" x2="1483.6744" xlink:href="#f" y1="1479.3293" y2="1836.5211"/><linearGradient id="D" gradientUnits="userSpaceOnUse" x1="2547.3191" x2="2703.4998" xlink:href="#k" y1="1629.5288" y2="2370.1277"/><linearGradient id="E" gradientTransform="matrix(.9356 .353 -.353 .9356 1877.603 -34.4284)" gradientUnits="userSpaceOnUse" x1="1250.6202" x2="1561.2935" xlink:href="#f" y1="1411.8145" y2="1769.0054"/><linearGradient id="F" gradientTransform="matrix(.9356 .353 -.353 .9356 1877.603 -34.4284)" gradientUnits="userSpaceOnUse" x1="1098.3914" x2="1925.7559" xlink:href="#f" y1="2382.8845" y2="1281.3951"/><path d="m3032.48 2298.2c-313.48 581.12-945.65 948.21-1541.89 856.37-97.02-14.94-363-59.46-598.5-269.47-453.33-404.28-550.28-1204.82-184.59-1768.97 266.16-410.61 743.28-643.37 1196.64-631.72 97.65 2.51 471.9 17.96 800.8 289.17 48.31 39.83 156.92 133.19 250.89 284.66 231.18 372.63 260.55 899.06 76.65 1239.96z" fill="url(#a)"/><g fill="#91b3fa"><g opacity=".3"><path d="m1745.12 2891.24c-7.6-3.57-10.86-12.63-7.29-20.22 6.94-14.76 13.34-30.04 19.03-45.42 2.88-7.78 11.45-11.8 19.25-9.08.09.03.18.06.28.1 7.87 2.91 11.89 11.65 8.98 19.53-5.99 16.19-12.72 32.27-20.03 47.81-3.34 7.1-11.48 10.42-18.73 7.89-.51-.18-1.01-.38-1.49-.61zm34.27-142.39c3.54-16 6.42-32.3 8.57-48.47 1.11-8.31 8.75-14.17 17.07-13.06 8.35 1.14 14.17 8.76 13.06 17.08-2.26 17.01-5.3 34.17-9.02 51.01-1.81 8.2-9.93 13.37-18.12 11.56-.6-.13-1.18-.3-1.74-.49-7.16-2.5-11.5-10.03-9.82-17.63zm13.59-128.26c-.12-16.34-.94-32.88-2.46-49.15-.78-8.36 5.36-15.77 13.72-16.55 8.35-.77 15.76 5.36 16.55 13.72 1.6 17.14 2.47 34.56 2.59 51.76.06 8.39-6.7 15.24-15.09 15.31-1.79.01-3.51-.29-5.11-.84-5.9-2.05-10.16-7.64-10.2-14.25zm-15.44-128.07c-3.77-15.92-8.28-31.86-13.39-47.39-2.62-7.97 1.71-16.57 9.68-19.19s16.56 1.72 19.19 9.68c5.38 16.35 10.12 33.13 14.1 49.89 1.93 8.17-3.12 16.36-11.29 18.29-2.92.69-5.85.49-8.49-.43-4.74-1.65-8.56-5.61-9.8-10.85zm-43.59-121.45c-7.19-14.65-15.12-29.21-23.56-43.25-4.32-7.2-1.99-16.54 5.2-20.86 7.2-4.33 16.54-1.99 20.85 5.21 8.88 14.77 17.21 30.09 24.78 45.5 3.7 7.53.59 16.64-6.94 20.34-3.8 1.87-7.99 2-11.7.71-3.63-1.26-6.79-3.91-8.63-7.65zm-69.37-108.77c-10.27-12.72-21.21-25.15-32.53-36.95-5.81-6.06-5.61-15.68.45-21.49s15.68-5.61 21.49.45c11.91 12.42 23.43 25.51 34.24 38.89 5.27 6.53 4.25 16.1-2.28 21.37-4.24 3.43-9.77 4.19-14.56 2.52-2.59-.89-4.96-2.5-6.81-4.79zm-517.4-225.52c-.77-8.36 5.39-15.76 13.75-16.52 17.12-1.57 34.55-2.41 51.79-2.5 8.4-.04 15.24 6.73 15.28 15.12.05 8.39-6.72 15.23-15.12 15.27-16.37.08-32.91.89-49.18 2.38-2.23.2-4.39-.08-6.38-.78-5.46-1.89-9.58-6.84-10.14-12.97zm425.69 134.88c-12.83-10.11-26.26-19.78-39.92-28.75-7.02-4.61-8.97-14.04-4.36-21.05 4.61-7.02 14.02-8.93 21.05-4.36 14.38 9.45 28.52 19.63 42.04 30.28 6.59 5.19 7.73 14.75 2.53 21.35-4.12 5.23-10.98 7.03-16.94 4.95-1.54-.54-3.03-1.34-4.4-2.42zm-293.23-135.43c1.12-8.32 8.78-14.15 17.1-13.03 17.04 2.31 34.2 5.38 51.02 9.12 8.21 1.79 13.35 9.95 11.53 18.14-1.83 8.19-9.95 13.35-18.14 11.53-15.98-3.56-32.29-6.48-48.49-8.67-1.03-.14-2.03-.39-2.97-.71-6.68-2.32-11.03-9.1-10.05-16.38zm183.6 67.58c-14.76-6.98-30.02-13.41-45.36-19.12-7.87-2.92-11.87-11.67-8.95-19.54 2.89-7.76 11.45-11.77 19.24-9.06.1.04.2.07.3.11 16.15 6 32.21 12.77 47.75 20.11 7.59 3.59 10.83 12.65 7.25 20.24-3.35 7.09-11.48 10.39-18.72 7.86-.51-.16-1.01-.37-1.51-.6z"/><path d="m1052.36 2069.08c2.83.98 5.97 1.15 9.07.28 7.55-2.11 15.26-4.1 22.94-5.91 8.17-1.93 13.23-10.12 11.3-18.28-1.93-8.17-10.12-13.24-18.29-11.3-8.07 1.9-16.19 3.99-24.13 6.21-8.08 2.26-12.81 10.65-10.55 18.73 1.39 4.98 5.11 8.68 9.66 10.27z"/></g><g opacity=".3"><path d="m690.22 2358.18c6.93 2.41 14.77-.49 18.37-7.15 3.71-6.9 7.64-13.84 11.66-20.62 4.28-7.22 1.9-16.55-5.32-20.83-7.25-4.3-16.55-1.9-20.83 5.32-4.23 7.14-8.36 14.45-12.27 21.71-3.98 7.39-1.21 16.61 6.18 20.59.71.4 1.45.72 2.21.98z"/><path d="m987.94 3187.56c-7.78-3.14-11.54-12-8.39-19.79 3.15-7.78 11.99-11.53 19.79-8.39 14.82 5.99 30.12 11.44 45.65 16.27 7.99 2.45 12.49 11.01 10 19.03s-11.01 12.49-19.03 10c-6.73-2.09-13.4-4.29-20-6.59-9.43-3.29-18.85-6.83-28.02-10.53zm116.12 18.79c1.38-8.27 9.22-13.86 17.5-12.48 15.9 2.66 32.07 4.67 48.09 5.99 8.36.66 14.59 8.02 13.91 16.39-.69 8.36-8.03 14.59-16.39 13.9-16.86-1.38-33.89-3.5-50.62-6.3-.87-.15-1.71-.36-2.51-.64-6.87-2.39-11.22-9.45-9.98-16.86zm-190.6-55.02c-14.66-8.42-29.17-17.58-43.11-27.24-6.9-4.78-8.62-14.25-3.84-21.15s14.24-8.61 21.15-3.84c13.24 9.17 27.01 17.87 40.94 25.87 7.28 4.18 9.79 13.47 5.61 20.75-3.7 6.44-11.4 9.15-18.16 6.79-.88-.3-1.75-.7-2.59-1.18zm320.53 65.59c-.47-8.38 5.95-15.56 14.33-16.02 16.07-.89 32.28-2.49 48.21-4.73 8.32-1.18 16 4.61 17.17 12.93 1.17 8.31-4.61 16-12.92 17.17-16.77 2.36-33.85 4.04-50.76 4.99-2.04.11-4.02-.18-5.84-.81-5.66-1.98-9.84-7.2-10.19-13.53zm-428.28-144.52c-12.45-11.43-24.58-23.56-36.05-36.04-5.68-6.18-5.28-15.79.9-21.47 6.18-5.69 15.8-5.28 21.48.9 10.91 11.86 22.43 23.38 34.25 34.23 6.18 5.68 6.59 15.3.91 21.48-4.23 4.61-10.65 6.01-16.2 4.07-1.91-.67-3.71-1.72-5.29-3.17zm-87.82-100.65c-9.67-13.91-18.86-28.39-27.33-43.04-4.2-7.27-1.71-16.56 5.56-20.77 7.28-4.2 16.57-1.72 20.76 5.56 8.04 13.92 16.78 27.68 25.97 40.9 4.79 6.89 3.09 16.36-3.81 21.16-4.15 2.88-9.25 3.41-13.68 1.87-2.93-1.02-5.57-2.94-7.47-5.68zm-63.81-117.4c-6.41-15.69-12.23-31.83-17.3-47.97-2.52-8.01 1.94-16.54 9.94-19.06 8.02-2.52 16.54 1.94 19.06 9.94 4.81 15.33 10.35 30.66 16.44 45.58 3.18 7.77-.55 16.64-8.32 19.82-3.57 1.46-7.37 1.46-10.74.29-3.98-1.38-7.36-4.4-9.08-8.6zm-36.67-128.52c-2.83-16.71-4.97-33.74-6.37-50.62-.7-8.36 5.52-15.71 13.89-16.41 8.35-.69 15.71 5.53 16.4 13.89 1.33 16.02 3.37 32.19 6.05 48.06 1.4 8.28-4.17 16.12-12.45 17.52-2.61.44-5.18.19-7.52-.63-5.07-1.75-9.04-6.15-10-11.81zm-7.54-133.52c.92-16.89 2.58-33.95 4.93-50.74 1.16-8.31 8.85-14.11 17.16-12.95 8.29 1.16 14.11 8.84 12.95 17.16-2.23 15.94-3.81 32.16-4.69 48.2-.46 8.38-7.63 14.8-16.01 14.34-1.46-.08-2.86-.36-4.18-.82-6.23-2.17-10.54-8.26-10.16-15.19zm21.93-131.77c3.37-12 7.16-24.04 11.25-35.78 1.48-4.26 3.01-8.48 4.57-12.68 2.93-7.86 11.64-12.05 19.55-8.93 7.87 2.93 11.87 11.68 8.93 19.55-1.49 3.99-2.94 8.01-4.35 12.05-3.89 11.17-7.49 22.61-10.7 34.02-2.27 8.08-10.67 12.79-18.74 10.52-.3-.09-.6-.18-.9-.28-7.52-2.62-11.8-10.69-9.61-18.47z"/><path d="m1373.04 3208.72c2.85.99 6.03 1.15 9.15.26 7.91-2.25 15.93-4.72 23.82-7.33 7.97-2.63 12.3-11.23 9.67-19.2s-11.22-12.31-19.2-9.67c-7.5 2.47-15.11 4.81-22.63 6.96-8.07 2.29-12.75 10.7-10.45 18.78 1.42 4.95 5.13 8.63 9.64 10.2z"/></g><path d="m1500 2981.17c2.58-1.59 3.87-4.64 3.21-7.6l-18.8-84.39c28.67-28.43 53.01-61.64 71.61-98.8l85.99-8.45c3.02-.3 5.51-2.47 6.22-5.42l24.06-100.88c.7-2.95-.54-6.02-3.1-7.64l-72.92-46.35c.17-41.55-6.56-82.17-19.31-120.48l54.87-66.82c1.92-2.34 2.15-5.65.56-8.23l-54.32-88.35c-1.59-2.58-4.64-3.87-7.6-3.21l-84.39 18.8c-28.43-28.67-61.64-53.01-98.8-71.61l-8.45-85.99c-.3-3.02-2.47-5.51-5.42-6.22l-100.88-24.06c-2.95-.7-6.02.54-7.64 3.1l-46.35 72.92c-41.55-.17-82.17 6.56-120.48 19.31l-66.82-54.87c-2.34-1.92-5.65-2.15-8.23-.56l-88.35 54.32c-2.58 1.59-3.87 4.64-3.21 7.59l18.8 84.39c-28.67 28.43-53.01 61.64-71.61 98.8l-85.99 8.45c-3.02.29-5.51 2.47-6.22 5.42l-24.06 100.88c-.7 2.95.54 6.02 3.1 7.64l72.92 46.35c-.17 41.55 6.56 82.17 19.31 120.48l-54.87 66.82c-1.92 2.34-2.15 5.65-.56 8.23l54.32 88.35c1.59 2.58 4.64 3.87 7.6 3.21l84.39-18.8c28.43 28.67 61.64 53.01 98.8 71.61l8.45 85.99c.3 3.01 2.47 5.51 5.42 6.21l100.88 24.06c2.95.7 6.02-.54 7.64-3.1l46.35-72.92c41.55.17 82.17-6.56 120.48-19.31l66.82 54.87c2.34 1.92 5.65 2.15 8.23.56z"/></g><path d="m1169.07 2712.82c-50.95-26.62-70.74-89.72-44.12-140.67 12.89-24.68 34.63-42.86 61.19-51.2 26.56-8.33 54.79-5.83 79.47 7.07 50.95 26.62 70.74 89.72 44.12 140.67-24.22 46.35-78.63 66.91-126.61 50.2-4.76-1.64-9.46-3.67-14.05-6.07zm24.34-168.65c-20.37 6.39-37.03 20.33-46.92 39.25-20.4 39.06-5.23 87.44 33.83 107.85 39.07 20.43 87.44 5.23 107.85-33.83 20.4-39.06 5.23-87.44-33.83-107.85-3.54-1.85-7.17-3.42-10.88-4.71-16.09-5.6-33.49-5.91-50.05-.71z" fill="#bdd0fb"/><path d="m1131.59 2860.39c8.24 2.87 16.68 5.34 25.28 7.4 2.71.65 5.43 1.25 8.16 1.81 13.45 2.76 27.1 4.44 40.74 5.02.19.01.37.02.56.02.53.02 1.05.04 1.58.05 1.03.04 2.06.06 3.08.09 2.7.06 5.03-1.65 5.88-4.07.2-.59.32-1.22.34-1.88.07-3.36-2.59-6.13-5.95-6.21-17.27-.38-34.62-2.62-51.56-6.67-84.16-20.06-147.73-81.73-174.14-157.99-14.69-42.42-17.88-89.35-6.71-136.16 1.96-8.21 4.31-16.26 7.05-24.12 18.43-52.9 54.2-97.49 102.56-127.22 55.56-34.16 121.09-44.64 184.53-29.51 131.01 31.26 212.09 163.2 180.85 294.15-1.93 8.07-4.25 16.02-6.97 23.81-11.76 33.75-30.77 64.54-55.78 90.12-.65.66-1.11 1.43-1.39 2.25-.75 2.15-.25 4.65 1.49 6.35 2.41 2.34 6.25 2.31 8.6-.1 26.26-26.85 46.22-59.18 58.56-94.61 2.85-8.17 5.29-16.51 7.32-24.99 32.8-137.49-52.42-276.02-189.85-308.8-66.6-15.89-135.4-4.88-193.72 30.98-50.78 31.22-88.32 78.02-107.68 133.56-2.87 8.25-5.35 16.7-7.4 25.32-15.89 66.6-4.89 135.4 30.97 193.73 31.22 50.78 78.04 88.33 133.6 107.67z" fill="#bdd0fb"/><g fill="#91b3fa" opacity=".3"><path d="m2814.34 906.99c3.62-4.56 3.98-11.13.45-16.14-6.59-9.35-13.56-18.62-20.7-27.57-4.64-5.81-13.11-6.76-18.94-2.11-5.84 4.63-6.76 13.12-2.11 18.94 6.81 8.52 13.45 17.36 19.74 26.28 4.28 6.08 12.69 7.53 18.78 3.25 1.07-.77 2-1.66 2.78-2.65z"/><path d="m2746.17 829.18c-5.2 5.32-13.72 5.43-19.05.24-13.45-13.11-27.73-25.68-42.43-37.35-3.1-2.46-6.24-4.9-9.42-7.31-5.92-4.5-7.07-12.95-2.57-18.88 4.48-5.43 12.95-7.07 18.89-2.57 3.32 2.53 6.61 5.08 9.85 7.65 15.42 12.24 30.39 25.42 44.49 39.17 4.99 4.86 5.4 12.66 1.16 18.01-.29.35-.6.7-.92 1.04zm-127.8-82.44c-19.67-11.47-40.22-21.84-61.09-30.78-6.84-2.94-10-10.85-7.07-17.69 2.93-6.8 10.85-10.01 17.69-7.07 21.87 9.38 43.42 20.24 64.04 32.27 6.43 3.75 8.6 12 4.85 18.44-.33.56-.7 1.1-1.1 1.6-4.09 5.15-11.46 6.64-17.32 3.23zm-125.54-53.78c-21.85-6.3-44.32-11.28-66.8-14.83-7.34-1.16-12.37-8.06-11.21-15.41 1.17-7.37 8.05-12.38 15.41-11.21 23.58 3.71 47.15 8.96 70.06 15.55 7.15 2.06 11.28 9.53 9.22 16.68-.51 1.74-1.33 3.3-2.39 4.64-3.29 4.15-8.88 6.13-14.29 4.58zm-134.92-21.29c-22.76-.75-45.78-.09-68.38 1.97-7.42.67-13.97-4.79-14.64-12.2-.67-7.39 4.78-13.96 12.19-14.64 23.72-2.15 47.84-2.85 71.71-2.06 7.44.24 13.27 6.48 13.03 13.91-.11 3-1.18 5.73-2.91 7.92-2.56 3.23-6.56 5.25-11 5.1zm-136.02 12.3c-22.25 4.81-44.4 11.04-65.85 18.51-7.02 2.45-14.7-1.26-17.15-8.29s1.25-14.72 8.29-17.15c22.48-7.84 45.71-14.36 69.02-19.41 7.27-1.57 14.44 3.05 16.02 10.32.89 4.11-.2 8.18-2.62 11.24-1.88 2.34-4.55 4.09-7.71 4.78zm-128.92 44.94c-20.39 10.06-40.33 21.5-59.29 33.99-6.21 4.09-14.57 2.38-18.66-3.84-4.09-6.21-2.38-14.54 3.83-18.67 19.88-13.1 40.8-25.09 62.19-35.65 6.67-3.29 14.75-.55 18.04 6.12 2.38 4.83 1.61 10.4-1.53 14.35-1.2 1.51-2.73 2.79-4.58 3.7zm-113.97 75.08c-17.24 14.71-33.79 30.71-49.17 47.55-5.03 5.49-13.55 5.87-19.04.85-5.49-5.01-5.8-13.46-.86-19.04 16.14-17.64 33.49-34.41 51.57-49.85 5.66-4.83 14.17-4.16 19 1.5 4.25 4.98 4.24 12.17.31 17.11-.53.67-1.13 1.3-1.81 1.88zm-146.54 164.35c-6.55-3.54-8.99-11.7-5.45-18.25 9.79-18.13 20.74-36.03 32.51-53.16 1.77-2.61 3.58-5.19 5.4-7.76 4.12-6.16 12.73-7.48 18.79-3.15 6.06 4.32 7.47 12.72 3.16 18.79-1.72 2.4-3.41 4.83-5.1 7.32-11.27 16.4-21.72 33.47-31.05 50.75-.38.71-.83 1.38-1.31 1.99-3.99 5.03-11.12 6.63-16.95 3.47z"/></g><g fill="#91b3fa" opacity=".3"><path d="m2789.86 1594.53c-14.84 18.2-30.92 35.65-47.79 51.88-5.36 5.15-13.89 4.99-19.05-.38s-4.91-13.88.38-19.05c16.09-15.47 31.42-32.11 45.58-49.48 4.7-5.77 13.19-6.63 18.95-1.93 5.72 4.67 6.62 13.06 2.05 18.82-.04.04-.08.09-.12.14zm22.64-53.1c-6.29-3.97-8.16-12.3-4.18-18.58 11.96-18.92 22.9-38.75 32.51-58.95 3.2-6.67 11.23-9.58 17.96-6.37 6.72 3.19 9.57 11.22 6.38 17.95-10.07 21.17-21.53 41.96-34.08 61.78-.27.42-.54.81-.85 1.19-4.22 5.31-11.86 6.7-17.74 2.98zm-124.2 150.69c-18.81 14.08-38.63 27.14-58.92 38.8-6.45 3.71-14.7 1.48-18.4-4.97-3.72-6.45-1.49-14.65 4.96-18.4 19.36-11.12 38.27-23.57 56.22-37 5.96-4.46 14.4-3.24 18.85 2.7 3.75 5.01 3.49 11.77-.23 16.45-.7.89-1.53 1.71-2.48 2.42zm186.18-273.62c-7.06-2.35-10.88-9.98-8.53-17.04 7.06-21.24 12.89-43.11 17.31-65.04 1.48-7.28 8.59-12 15.86-10.55 7.3 1.47 12.02 8.58 10.55 15.87-4.63 22.99-10.74 45.95-18.16 68.22-.52 1.54-1.28 2.92-2.23 4.12-3.42 4.32-9.29 6.25-14.8 4.42zm-308.28 343.74c-21.59 9.13-43.97 17.02-66.52 23.48-7.15 2.05-14.62-2.1-16.66-9.25-2.05-7.15 2.08-14.62 9.25-16.67 21.51-6.15 42.85-13.68 63.44-22.4 6.85-2.89 14.76.31 17.66 7.17 1.99 4.69 1.1 9.89-1.87 13.63-1.36 1.72-3.15 3.13-5.3 4.04zm-135.37 38.8c-23.2 3.69-46.82 6.01-70.22 6.89-7.43.28-13.68-5.51-13.96-12.95-.29-7.43 5.51-13.69 12.96-13.97 22.31-.84 44.85-3.06 66.99-6.59 7.35-1.17 14.25 3.84 15.43 11.19.62 3.88-.49 7.64-2.76 10.5-2.04 2.55-4.98 4.38-8.44 4.93zm-140.78 5.26c-23.42-1.96-46.93-5.39-69.85-10.16-7.29-1.52-11.96-8.66-10.44-15.94 1.51-7.28 8.66-11.95 15.93-10.44 21.86 4.56 44.27 7.82 66.6 9.68 7.42.62 12.93 7.14 12.3 14.55-.22 2.75-1.27 5.23-2.86 7.24-2.71 3.42-7.02 5.46-11.68 5.07z"/><path d="m2916.57 1278.55c1.62-2.04 2.66-4.56 2.87-7.35.88-11.5 1.42-23.07 1.61-34.41.12-7.44-5.8-13.58-13.24-13.71-7.43-.11-13.56 5.81-13.71 13.24-.18 10.81-.7 21.85-1.53 32.83-.57 7.42 5 13.89 12.41 14.46 4.64.35 8.9-1.68 11.59-5.06z"/></g><path d="m2752 1081.79c-.62-2.84-2.98-4.98-5.87-5.32l-82.47-9.67c-16.71-34.99-39.11-67.57-66.91-96.21l19.56-80.64c.69-2.83-.5-5.78-2.95-7.35l-83.85-53.75c-2.45-1.57-5.63-1.42-7.91.39l-65.11 51.45c-37.62-13.31-76.59-20.07-115.36-20.64l-43.22-70.9c-1.51-2.49-4.44-3.74-7.28-3.11l-97.3 21.28c-2.84.62-4.98 2.98-5.32 5.87l-9.67 82.47c-35 16.71-67.58 39.11-96.21 66.91l-80.64-19.56c-2.83-.69-5.78.5-7.35 2.95l-53.75 83.85c-1.57 2.45-1.41 5.63.39 7.91l51.45 65.11c-13.31 37.62-20.07 76.59-20.64 115.36l-70.9 43.22c-2.48 1.51-3.74 4.44-3.11 7.28l21.28 97.3c.62 2.84 2.98 4.98 5.87 5.32l82.47 9.67c16.71 34.99 39.11 67.58 66.91 96.21l-19.56 80.64c-.69 2.83.5 5.78 2.95 7.35l83.85 53.75c2.45 1.57 5.63 1.41 7.91-.39l65.11-51.45c37.62 13.31 76.59 20.07 115.36 20.64l43.22 70.9c1.51 2.49 4.44 3.74 7.28 3.11l97.3-21.28c2.84-.62 4.98-2.98 5.32-5.87l9.67-82.47c35-16.71 67.58-39.11 96.21-66.91l80.64 19.56c2.83.68 5.78-.5 7.35-2.95l53.75-83.85c1.57-2.45 1.41-5.63-.39-7.91l-51.44-65.11c13.31-37.62 20.06-76.59 20.64-115.36l70.9-43.22c2.49-1.51 3.74-4.44 3.11-7.28z" fill="#91b3fa"/><path d="m2405.16 1298.22c-19.85 18.64-45.78 28.41-72.99 27.54-27.2-.86-52.45-12.28-71.07-32.14-38.45-40.98-36.37-105.49 4.6-144.06 41-38.44 105.62-36.37 144.05 4.61 18.63 19.85 28.41 45.77 27.54 72.98-.71 22.12-8.38 42.94-21.9 59.96-3.1 3.9-6.52 7.62-10.23 11.11zm-124.41-23.04c13.7 14.61 32.27 23.01 52.29 23.65 20.01.64 39.08-6.56 53.68-20.26 14.59-13.72 23-32.27 23.64-52.29.65-20.01-6.56-39.08-20.25-53.68-28.28-30.15-75.81-31.67-105.97-3.39-2.72 2.56-5.2 5.26-7.46 8.1-22.72 28.62-21.66 70.45 4.07 97.87z" fill="#bdd0fb"/><path d="m2532 1382.14c5.3-6.68 10.3-13.68 15.01-21 9.33-14.54 17.19-30.05 23.37-46.13.27-.72.55-1.45.82-2.17 2.1-5.61.22-11.73-4.23-15.27-1.08-.86-2.32-1.56-3.68-2.07-6.97-2.61-14.71.96-17.33 7.91-5.63 15.07-12.91 29.6-21.63 43.19v.01c-.48.75-.97 1.49-1.45 2.23-20.93 31.98-49.04 57.52-81.84 75.14-17.8 9.56-37.01 16.78-57.22 21.39-.16.04-.33.08-.49.11-.51.11-1 .23-1.51.33-59.2 12.94-119.9 2.07-170.91-30.63-6.61-4.23-12.94-8.76-19-13.57-40.76-32.37-68.92-77.4-80.2-128.94-12.95-59.2-2.06-119.89 30.64-170.9 32.7-50.97 83.32-86.24 142.51-99.2 59.2-12.94 119.9-2.07 170.91 30.63 6.49 4.16 12.75 8.64 18.75 13.4 26.01 20.65 47.2 46.76 61.97 76.53.91 1.83 2.18 3.37 3.69 4.56 3.96 3.14 9.54 3.92 14.37 1.52 6.66-3.33 9.39-11.39 6.08-18.07-16.53-33.31-40.24-62.52-69.32-85.63-6.72-5.33-13.71-10.34-20.97-15-57.08-36.59-124.99-48.76-191.22-34.27-66.22 14.49-122.86 53.84-159.43 110.97-36.59 57.07-48.77 124.97-34.27 191.21 12.6 57.66 44.11 108.04 89.72 144.25 6.77 5.37 13.86 10.45 21.24 15.18 110.48 70.83 255.7 44.96 335.62-55.71z" fill="#bdd0fb"/><path d="m507.84 1193.62-20.66 90.15c-6.92 30.2 6.08 61.46 32.37 77.85l62.32 38.84c16.85 10.5 27.28 28.64 28.34 48.47 2.66 49.89 11.07 98.77 24.69 145.82 5.53 19.1 1.66 39.68-10.83 55.16l-46.14 57.22c-19.45 24.12-21.45 57.92-4.99 84.17l49.13 78.36c16.46 26.25 47.76 39.16 77.94 32.16l71.6-16.62c19.37-4.5 39.58.98 54.37 14.28 36.42 32.75 76.75 61.61 120.51 85.74 17.39 9.59 29.17 26.87 31.29 46.62l7.82 73.01c3.3 30.81 25.78 56.12 55.98 63.05l90.15 20.66c30.2 6.92 61.46-6.08 77.85-32.37l38.84-62.32c10.5-16.85 28.64-27.27 48.47-28.33 49.89-2.66 98.77-11.07 145.81-24.7 19.11-5.53 39.68-1.66 55.17 10.83l57.22 46.14c24.12 19.45 57.92 21.46 84.17 5l78.36-49.14c26.25-16.46 39.16-47.76 32.16-77.94l-16.62-71.6c-4.5-19.37.98-39.58 14.28-54.37 32.75-36.42 61.61-76.75 85.74-120.51 9.59-17.39 26.87-29.17 46.61-31.29l73.01-7.82c30.81-3.3 56.12-25.78 63.04-55.98l20.67-90.16c6.92-30.2-6.08-61.46-32.37-77.85l-62.32-38.84c-16.85-10.5-27.28-28.64-28.34-48.47-2.66-49.89-11.07-98.77-24.69-145.82-5.53-19.1-1.66-39.68 10.83-55.17l46.14-57.22c19.45-24.12 21.45-57.92 4.99-84.17l-49.13-78.36c-16.46-26.25-47.76-39.16-77.94-32.16l-71.6 16.62c-19.37 4.5-39.58-.98-54.37-14.28-36.42-32.75-76.75-61.61-120.5-85.74-17.39-9.59-29.17-26.87-31.29-46.62l-7.82-73.01c-3.3-30.8-25.78-56.12-55.98-63.04l-90.16-20.67c-30.2-6.92-61.46 6.08-77.85 32.37l-38.84 62.32c-10.5 16.85-28.64 27.28-48.47 28.34-49.89 2.66-98.77 11.07-145.82 24.69-19.1 5.53-39.68 1.66-55.17-10.82l-57.22-46.14c-24.12-19.45-57.92-21.46-84.17-5l-78.36 49.14c-26.25 16.46-39.16 47.76-32.16 77.94l16.62 71.61c4.5 19.37-.98 39.59-14.28 54.37-32.75 36.42-61.61 76.75-85.74 120.5-9.59 17.39-26.87 29.17-46.61 31.29l-73.01 7.82c-30.8 3.3-56.12 25.79-63.04 55.99zm244.16 47.75c95.28-281.58 400.78-432.61 682.37-337.34 281.58 95.28 432.61 400.78 337.34 682.37-95.28 281.58-400.79 432.61-682.37 337.34-281.59-95.28-432.62-400.78-337.34-682.37z" fill="url(#c)"/><g clip-path="url(#d)"><path d="m877.23 2861.27s-14.29 25.24-14.75 93.93c-.04 6.4 5.28 11.58 11.68 11.26l121.37-6.1c4.88-.25 8.13-5.21 6.33-9.76-8.17-20.69-32.26-70.93-81.71-97.84z" fill="url(#e)"/><path d="m869.62 2815.13 9.76 57.22c.84 4.94 4.93 8.72 9.93 9.04 6.68.43 16.35.48 25.65-1.53 8.45-1.83 14.21-9.74 13.77-18.37l-2.79-55.57z" fill="url(#g)"/><path d="m1176.6 2843.53s-24.58 35.27-25.93 84.88c-.32 11.69 9.12 21.35 20.8 21.79l188.61 6.99c8.83.33 12.84-10.89 5.8-16.23-34.76-26.39-103.17-75.81-153.23-96.09z" fill="url(#h)"/><path d="m1163.81 2788.3 13.26 71.45c1.48 7.99 9.16 13.5 17.13 11.88 4.84-.98 10.57-2.93 16.73-6.61 5.85-3.5 8.91-10.31 7.86-17.05l-13.47-86.51z" fill="url(#i)"/><path d="m845.69 1803.28s-48.65 47.45-55.52 101.93c-6.86 54.48 74.01 930.35 74.01 930.35s51.34 5.91 76.78-11.31c0 0 2.48-571.19 19.52-704.01 0 0 153.76 583.82 193.5 688.71 0 0 49.35 3.5 64.69-6.63 0 0-70.97-763.25-118.65-897.18z" fill="url(#j)"/><path d="m957.49 2101.07c.58.04 1.16-.03 1.74-.21 2.53-.8 3.94-3.5 3.14-6.03l-25.8-81.86c-.36-1.15-1.15-2.13-2.2-2.73l-48.23-27.62c-2.3-1.31-5.24-.52-6.57 1.79-1.32 2.31-.52 5.24 1.79 6.57l46.6 26.68 25.23 80.07c.62 1.94 2.37 3.22 4.3 3.34z" fill="#666694"/><path d="m1322.59 1270.85c-215.22-7.01-269 40.16-269 40.16l111.17 157.42s210.38-14.75 355.43-138.64c-29.77-28.99-51.07-61.62-64.97-87.16-38.09 18.12-82.43 29.86-132.63 28.22z" fill="url(#l)"/><path d="m1642.39 939.38c-.63-6.85-10.04-8.25-12.64-1.88l-24.41 59.73c-4.72 11.54-5.78 24.25-3.03 36.41l11.3 33.48c3.7 16.42.23 33.61-9.61 47.27-23.55 32.68-74.18 92.74-148.77 128.23 13.89 25.54 35.2 58.16 64.97 87.16 53.22-45.46 97.66-105.59 119.66-185.11 12.24-4.44 19.95-16.56 18.8-29.53z" fill="url(#m)"/><path d="m1397.88 1361.58c-79.54-77.5-225.1-107.01-309.06-117.91-36.78-4.78-71.7 17.31-82.87 52.69-32.38 102.54-121.05 369.53-138.52 415.53-14.34 37.74-29.43 74.65-39.04 97.74-5.74 13.79.68 29.63 14.44 35.43 71.7 30.22 199.59 62.06 251.4 74.39 11.4 2.71 22.16-6.29 21.57-17.99-.5-9.92 1.71-19.8 6.39-28.56l177.2-332.02c127.27 127.6 233.45 134.51 313.08 101.18-15.76-41.46-26.8-83.23-33.21-125.31-120.84-14.52-181.38-155.17-181.38-155.17z" fill="url(#n)"/><path d="m1776.16 1484.33-23.07-27.74c-67.58 51.59-125.52 65.93-173.83 60.13 6.41 42.09 17.45 83.86 33.21 125.31 104.9-43.9 163.69-157.7 163.69-157.7z" fill="url(#o)"/><path d="m1760.94 1485.62 122.05-1.38 109-68.28c-16.61-9.28-106.6 15.92-106.6 15.92s-95.89-9.61-121.65-8.34c-21.39 1.05-16.79 31.66-14.62 42 .44 2.11.79 3.38.79 3.38z" fill="url(#p)"/><path d="m1195.76 1088.6-56.38 160.06s76.42 47.4 135.58 39.55l24.98-142.63z" fill="url(#q)"/><path d="m1310.63 948.9s50.17 92.55 57.34 142.78 20.88 82.04-36.6 97.25-109.16-9.62-140.14-57.6c0 0-48.43-73.87-41.81-106.4 6.62-32.54 161.21-76.03 161.21-76.03z" fill="url(#r)"/><path d="m1208.05 1093.46 3.19-1.75c4.07-2.23 5.44-7.42 2.96-11.34-9.6-15.19-28.8-50.24-8.8-60.53 25.76-13.26 129.7-43.98 149.29-83.5 18.82-37.98-4.64-82.87-35-93.6-2.03-.72-4.28.18-5.11 2.17l-2.04 4.82c-1.39 3.3-6.09 3.22-7.38-.12-1.24-3.21-5.67-3.47-7.23-.41-6.05 11.84-23.42 31.68-73.27 45.41-70.85 19.51-115.93 52.76-112.82 102.61.2 3.17-3.01 5.22-5.85 3.8-5.6-2.78-14.23-3.57-24.78 6.98-18.34 18.33-6.52 60.76 39.89 92.5 2.2 1.51 2.47 4.72.36 6.37-7.42 5.79-18.08 18.98 13.68 32.58 32.85 14.07 56.17 10.67 65.07 8.4 2.21-.56 3.47-2.86 2.79-5.04l-13.41-42.89c-.76-2.43.92-4.93 3.46-5.15z" fill="url(#s)"/><path d="m1210.66 1102.53s-21.28-60.05-47.33-40.45 20.24 67.59 42.58 67.98z" fill="url(#t)"/><path d="m2035.83 871.24c-.07 0-.13 0-.2 0-4.63-.11-8.31-3.95-8.2-8.59.03-1.24 2.24-124.22-47.67-170.82-14.23-13.28-30.99-18.82-51.17-16.98-104.23 9.57-110.49 172.57-110.54 174.21-.14 4.63-3.98 8.27-8.65 8.13-4.64-.14-8.28-4.02-8.13-8.65.06-1.81 1.55-44.79 17.24-89.78 21.36-61.28 58.9-96.08 108.56-100.64 24.92-2.3 46.51 4.93 64.19 21.45 55.41 51.75 53.11 178.11 52.98 183.47-.12 4.57-3.86 8.2-8.41 8.2z" fill="url(#v)"/><path d="m1565.91 1377.54 121.79-575.72 322.3 14.67 65.35 625.1-483.57-30.03c-17.2-1.06-29.44-17.15-25.87-34.02z" fill="#e2b93b"/><path d="m2072.19 825.71-62.2-9.21 65.35 625.1 62.08 3.86c12.59.78 22.71-10.2 20.91-22.68z" fill="#e2b93b"/><path d="m1966.73 865.62c-.07 0-.13 0-.2 0-4.63-.11-8.31-3.95-8.2-8.59.03-1.24 2.24-124.22-47.67-170.82-14.23-13.28-30.99-18.82-51.17-16.98-104.23 9.57-110.49 172.57-110.54 174.21-.14 4.63-3.96 8.22-8.65 8.13-4.64-.14-8.28-4.02-8.13-8.65.06-1.81 1.55-44.79 17.24-89.78 21.36-61.28 58.9-96.08 108.56-100.64 24.9-2.29 46.5 4.93 64.19 21.45 55.41 51.75 53.11 178.11 52.98 183.47-.12 4.57-3.86 8.2-8.41 8.2z" fill="url(#w)"/></g><path d="m1810.49 1075.29c-11.19 63.22-44 90.24-74.25 84.89-30.92-5.47-50.36-42.22-40.5-99.95 10.04-56.76 40.78-89.86 74.76-83.85 35.01 6.2 49.54 44.93 39.99 98.91zm-95.85 210.98 182.97-287.4 23.79 4.21-182.97 287.4zm13.37-222.23c-6.46 34.55-1.77 61.55 14.88 64.49 16.66 2.95 29.05-19.6 35.5-56.05 5.88-33.22 3.82-61.19-14.19-64.37-16.99-3.01-30.23 22.24-36.19 55.93zm212.69 162.77c-11.1 62.75-43.66 90.3-74.25 84.89-30.58-5.41-50.36-42.22-40.07-100.36 9.96-56.29 40.78-89.86 74.42-83.91 35 6.2 49.45 45.4 39.9 99.38zm-82.47-11.26c-6.38 34.08-1.78 61.55 14.87 64.49 16.99 3.01 29.05-19.6 35.5-56.05 5.96-33.68 3.81-61.19-14.19-64.37-17-3.01-30.23 22.25-36.18 55.93z" fill="#fff"/><path d="m1704.82 2358.28-5.64 89.72c-1.89 30.05 15.5 58 43.3 69.58l65.88 27.45c17.82 7.42 30.67 23.18 34.8 42.03 10.4 47.44 26.16 93 46.63 135.98 8.31 17.45 7.84 37.8-1.7 54.61l-35.26 62.14c-14.86 26.19-11.47 58.93 8.45 81.52l59.46 67.43c19.92 22.59 51.97 30.05 79.82 18.59l66.07-27.2c17.87-7.36 38.12-5.28 54.4 5.15 40.08 25.69 83.31 47.02 129.07 63.28 18.19 6.46 32.21 21.18 37.34 39.79l18.99 68.8c8.01 29.03 33.56 49.78 63.61 51.66l89.72 5.64c30.05 1.89 58-15.5 69.58-43.3l27.45-65.88c7.42-17.82 23.18-30.67 42.03-34.8 47.44-10.4 93-26.16 135.97-46.63 17.46-8.31 37.8-7.84 54.62 1.7l62.14 35.26c26.19 14.86 58.93 11.47 81.51-8.45l67.43-59.46c22.59-19.92 30.05-51.97 18.59-79.82l-27.2-66.07c-7.36-17.88-5.29-38.12 5.15-54.4 25.69-40.08 47.02-83.31 63.28-129.07 6.46-18.19 21.18-32.21 39.79-37.34l68.8-18.99c29.03-8.01 49.77-33.56 51.66-63.61l5.64-89.73c1.89-30.05-15.5-57.99-43.29-69.58l-65.89-27.45c-17.82-7.42-30.67-23.18-34.8-42.03-10.4-47.44-26.16-92.99-46.63-135.98-8.31-17.45-7.84-37.8 1.7-54.62l35.26-62.14c14.86-26.19 11.47-58.93-8.45-81.51l-59.46-67.43c-19.92-22.59-51.97-30.05-79.82-18.58l-66.07 27.2c-17.87 7.36-38.12 5.28-54.4-5.15-40.08-25.69-83.31-47.02-129.07-63.28-18.19-6.46-32.21-21.18-37.34-39.79l-18.99-68.8c-8.01-29.03-33.56-49.78-63.61-51.66l-89.73-5.64c-30.05-1.89-57.99 15.5-69.58 43.3l-27.45 65.89c-7.42 17.82-23.18 30.67-42.03 34.8-47.43 10.4-93 26.16-135.98 46.62-17.45 8.31-37.8 7.84-54.62-1.7l-62.14-35.26c-26.19-14.86-58.93-11.47-81.52 8.45l-67.43 59.46c-22.59 19.91-30.05 51.97-18.58 79.81l27.2 66.07c7.36 17.88 5.29 38.12-5.15 54.4-25.69 40.08-47.02 83.31-63.28 129.07-6.46 18.19-21.18 32.21-39.79 37.34l-68.8 18.99c-29 8.02-49.75 33.57-51.64 63.62zm241.71 7.4c47.09-285.07 316.35-478 601.43-430.91 285.07 47.09 478 316.36 430.91 601.43s-316.36 478-601.43 430.91c-285.08-47.09-478-316.36-430.91-601.43z" fill="url(#x)"/><g clip-path="url(#y)"><path d="m2452.33 1763.07s-26.09-182.92 176.16-119.3c0 0 101.24-8.56 98.99 86.2 0 0 61.14 47.48 7.6 125.47 0 0 142.11-34.47 208.68 66.76 62.63 95.24 7.49 314.74-74.79 332.54 0 0 66.5 42.1 29.92 113.56s-162.71 101.59-247.97 4.6c0 0-265.18 14.27-245.5-170.73 0 0-115.95-88.34 24.2-231.58s22.71-207.52 22.71-207.52z" fill="url(#z)"/><path d="m1979.12 2235.35s-13.52 203.54 141.98 258.75 286.84-240.43 286.84-240.43l-24.16 321.52s-120.5 141.77-325.54 30.33-163.09-361.08-163.09-361.08-122.8-18.63-91.13-141.96c2.17-8.46 13.6-9.89 17.8-2.23 15.55 28.35 48.36 76.49 95.57 85.24 67.72 12.54 61.73 49.86 61.73 49.86z" fill="url(#A)"/><path d="m2408.6 2178.94c42.35-9.19 164.63-22.72 271.02 91.97 18.04 19.45 23.87 47.33 14.95 72.32-39.6 110.94-145.11 459.58-85.16 610 0 0-144.21 127.71-272.45 5.55 0 0-34.44-291.75-105.76-415.56-49.24-85.47 112.29-297.84 152.96-349.02 6.16-7.74 14.76-13.16 24.44-15.26z" fill="#e2b93b"/><path d="m2540.39 1962.66s47.74 177.89 46.4 254.62c0 0-70.04 25.5-129.74-31.38 0 0 6.77-173.44-.49-205.16z" fill="url(#B)"/><path d="m2473.74 1719.99s-177.52 211.58-86.89 284.1 216.98-77.83 216.98-77.83 46.69-119.73 11.08-164.35c-35.6-44.62-141.17-41.92-141.17-41.92z" fill="url(#C)"/><path d="m2552 1672.22s-74.9 11.7-87.8 44.18c-12.9 32.47 99.3 72.25 131.3 76.25l15.43 136.29s86.31-120.37 61.69-195.68-120.62-61.04-120.62-61.04z" fill="url(#D)"/><path d="m2574.08 1907.37s67.93-67.32 89.05-18.34c21.12 48.97-62.49 78-88.69 52.73z" fill="url(#E)"/><path d="m1878.8 2197.5s32.14 31.68 47.2 28.83c39.02-7.37 111.33-14.2 144.58 9.83 46.08 33.3 85.6 151.04 139.76 243.94 54.17 92.9 222.93 186.3 321.68 128.54s32.34-280.65 131.22-301.16 74.39 271.13 43.45 331.37-170.49 215.15-394.82 98.15-268.47-411.21-268.47-411.21-70.08-17.19-107.05-33.84c-36.97-16.64-57.55-94.45-57.55-94.45z" fill="url(#F)"/></g></svg>