<?xml version="1.0" encoding="utf-8"?>
<!-- Generator: Adobe Illustrator 24.3.0, SVG Export Plug-In . SVG Version: 6.00 Build 0)  -->
<svg version="1.1" xmlns="http://www.w3.org/2000/svg" xmlns:xlink="http://www.w3.org/1999/xlink" x="0px" y="0px"
	 viewBox="0 0 3710 3710" style="enable-background:new 0 0 3710 3710;" xml:space="preserve">
<style type="text/css">
	
	.st0{display:none;}
	.st1{display:inline;}
	.st2{fill:#FFFFFF;}
	.st3{fill:url(#SVGID_1_);}
	.st4{opacity:0.3;}
	.st5{fill:#91B3FA;}
	.st6{fill:#BDD0FB;}
	.st7{fill:url(#SVGID_2_);}
	.st8{clip-path:url(#SVGID_4_);}
	.st9{fill:url(#SVGID_5_);}
	.st10{fill:url(#SVGID_6_);}
	.st11{fill:url(#SVGID_7_);}
	.st12{fill:url(#SVGID_8_);}
	.st13{fill:url(#SVGID_9_);}
	.st14{fill:#666694;}
	.st15{fill:url(#SVGID_10_);}
	.st16{fill:url(#SVGID_11_);}
	.st17{fill:url(#SVGID_12_);}
	.st18{fill:url(#SVGID_13_);}
	.st19{fill:url(#SVGID_14_);}
	.st20{fill:url(#SVGID_15_);}
	.st21{fill:url(#SVGID_16_);}
	.st22{fill:url(#SVGID_17_);}
	.st23{fill:url(#SVGID_18_);}
	.st24{fill:url(#SVGID_19_);}
	.st25{fill:#E2B93B;}
	.st26{fill:url(#SVGID_20_);}
	.st27{fill:url(#SVGID_21_);}
	.st28{clip-path:url(#SVGID_23_);}
	.st29{fill:url(#SVGID_24_);}
	.st30{fill:url(#SVGID_25_);}
	.st31{fill:url(#SVGID_26_);}
	.st32{fill:url(#SVGID_27_);}
	.st33{fill:url(#SVGID_28_);}
	.st34{fill:url(#SVGID_29_);}
	.st35{fill:url(#SVGID_30_);}
</style>
<g id="Background" class="st0">
	<g class="st1">
		<g>
			<rect class="st2" width="3710" height="3710"/>
		</g>
	</g>
</g>
<g id="Illustration">
	<g>
		<linearGradient id="SVGID_1_" gradientUnits="userSpaceOnUse" x1="3349.1587" y1="3185.761" x2="1369.8389" y2="1453.8575">
			<stop  offset="0" style="stop-color:#DAE3FE"/>
			<stop  offset="1" style="stop-color:#E9EFFD"/>
		</linearGradient>
		<path class="st3" d="M3032.48,2298.2c-313.48,581.12-945.65,948.21-1541.89,856.37c-97.02-14.94-363-59.46-598.5-269.47
			C438.76,2480.82,341.81,1680.28,707.5,1116.13c266.16-410.61,743.28-643.37,1196.64-631.72c97.65,2.51,471.9,17.96,800.8,289.17
			c48.31,39.83,156.92,133.19,250.89,284.66C3187.01,1430.87,3216.38,1957.3,3032.48,2298.2z"/>
		<g>
			<g class="st4">
				<path class="st5" d="M1745.12,2891.24c-7.6-3.57-10.86-12.63-7.29-20.22c6.94-14.76,13.34-30.04,19.03-45.42
					c2.88-7.78,11.45-11.8,19.25-9.08c0.09,0.03,0.18,0.06,0.28,0.1c7.87,2.91,11.89,11.65,8.98,19.53
					c-5.99,16.19-12.72,32.27-20.03,47.81c-3.34,7.1-11.48,10.42-18.73,7.89C1746.1,2891.67,1745.6,2891.47,1745.12,2891.24z
					 M1779.39,2748.85c3.54-16,6.42-32.3,8.57-48.47c1.11-8.31,8.75-14.17,17.07-13.06c8.35,1.14,14.17,8.76,13.06,17.08
					c-2.26,17.01-5.3,34.17-9.02,51.01c-1.81,8.2-9.93,13.37-18.12,11.56c-0.6-0.13-1.18-0.3-1.74-0.49
					C1782.05,2763.98,1777.71,2756.45,1779.39,2748.85z M1792.98,2620.59c-0.12-16.34-0.94-32.88-2.46-49.15
					c-0.78-8.36,5.36-15.77,13.72-16.55c8.35-0.77,15.76,5.36,16.55,13.72c1.6,17.14,2.47,34.56,2.59,51.76
					c0.06,8.39-6.7,15.24-15.09,15.31c-1.79,0.01-3.51-0.29-5.11-0.84C1797.28,2632.79,1793.02,2627.2,1792.98,2620.59z
					 M1777.54,2492.52c-3.77-15.92-8.28-31.86-13.39-47.39c-2.62-7.97,1.71-16.57,9.68-19.19c7.97-2.62,16.56,1.72,19.19,9.68
					c5.38,16.35,10.12,33.13,14.1,49.89c1.93,8.17-3.12,16.36-11.29,18.29c-2.92,0.69-5.85,0.49-8.49-0.43
					C1782.6,2501.72,1778.78,2497.76,1777.54,2492.52z M1733.95,2371.07c-7.19-14.65-15.12-29.21-23.56-43.25
					c-4.32-7.2-1.99-16.54,5.2-20.86c7.2-4.33,16.54-1.99,20.85,5.21c8.88,14.77,17.21,30.09,24.78,45.5
					c3.7,7.53,0.59,16.64-6.94,20.34c-3.8,1.87-7.99,2-11.7,0.71C1738.95,2377.46,1735.79,2374.81,1733.95,2371.07z M1664.58,2262.3
					c-10.27-12.72-21.21-25.15-32.53-36.95c-5.81-6.06-5.61-15.68,0.45-21.49c6.06-5.81,15.68-5.61,21.49,0.45
					c11.91,12.42,23.43,25.51,34.24,38.89c5.27,6.53,4.25,16.1-2.28,21.37c-4.24,3.43-9.77,4.19-14.56,2.52
					C1668.8,2266.2,1666.43,2264.59,1664.58,2262.3z M1147.18,2036.78c-0.77-8.36,5.39-15.76,13.75-16.52
					c17.12-1.57,34.55-2.41,51.79-2.5c8.4-0.04,15.24,6.73,15.28,15.12c0.05,8.39-6.72,15.23-15.12,15.27
					c-16.37,0.08-32.91,0.89-49.18,2.38c-2.23,0.2-4.39-0.08-6.38-0.78C1151.86,2047.86,1147.74,2042.91,1147.18,2036.78z
					 M1572.87,2171.66c-12.83-10.11-26.26-19.78-39.92-28.75c-7.02-4.61-8.97-14.04-4.36-21.05c4.61-7.02,14.02-8.93,21.05-4.36
					c14.38,9.45,28.52,19.63,42.04,30.28c6.59,5.19,7.73,14.75,2.53,21.35c-4.12,5.23-10.98,7.03-16.94,4.95
					C1575.73,2173.54,1574.24,2172.74,1572.87,2171.66z M1279.64,2036.23c1.12-8.32,8.78-14.15,17.1-13.03
					c17.04,2.31,34.2,5.38,51.02,9.12c8.21,1.79,13.35,9.95,11.53,18.14c-1.83,8.19-9.95,13.35-18.14,11.53
					c-15.98-3.56-32.29-6.48-48.49-8.67c-1.03-0.14-2.03-0.39-2.97-0.71C1283.01,2050.29,1278.66,2043.51,1279.64,2036.23z
					 M1463.24,2103.81c-14.76-6.98-30.02-13.41-45.36-19.12c-7.87-2.92-11.87-11.67-8.95-19.54c2.89-7.76,11.45-11.77,19.24-9.06
					c0.1,0.04,0.2,0.07,0.3,0.11c16.15,6,32.21,12.77,47.75,20.11c7.59,3.59,10.83,12.65,7.25,20.24
					c-3.35,7.09-11.48,10.39-18.72,7.86C1464.24,2104.25,1463.74,2104.04,1463.24,2103.81z"/>
				<path class="st5" d="M1052.36,2069.08c2.83,0.98,5.97,1.15,9.07,0.28c7.55-2.11,15.26-4.1,22.94-5.91
					c8.17-1.93,13.23-10.12,11.3-18.28c-1.93-8.17-10.12-13.24-18.29-11.3c-8.07,1.9-16.19,3.99-24.13,6.21
					c-8.08,2.26-12.81,10.65-10.55,18.73C1044.09,2063.79,1047.81,2067.49,1052.36,2069.08z"/>
			</g>
			<g class="st4">
				<path class="st5" d="M690.22,2358.18c6.93,2.41,14.77-0.49,18.37-7.15c3.71-6.9,7.64-13.84,11.66-20.62
					c4.28-7.22,1.9-16.55-5.32-20.83c-7.25-4.3-16.55-1.9-20.83,5.32c-4.23,7.14-8.36,14.45-12.27,21.71
					c-3.98,7.39-1.21,16.61,6.18,20.59C688.72,2357.6,689.46,2357.92,690.22,2358.18z"/>
				<path class="st5" d="M987.94,3187.56c-7.78-3.14-11.54-12-8.39-19.79c3.15-7.78,11.99-11.53,19.79-8.39
					c14.82,5.99,30.12,11.44,45.65,16.27c7.99,2.45,12.49,11.01,10,19.03c-2.49,8.02-11.01,12.49-19.03,10
					c-6.73-2.09-13.4-4.29-20-6.59C1006.53,3194.8,997.11,3191.26,987.94,3187.56z M1104.06,3206.35
					c1.38-8.27,9.22-13.86,17.5-12.48c15.9,2.66,32.07,4.67,48.09,5.99c8.36,0.66,14.59,8.02,13.91,16.39
					c-0.69,8.36-8.03,14.59-16.39,13.9c-16.86-1.38-33.89-3.5-50.62-6.3c-0.87-0.15-1.71-0.36-2.51-0.64
					C1107.17,3220.82,1102.82,3213.76,1104.06,3206.35z M913.46,3151.33c-14.66-8.42-29.17-17.58-43.11-27.24
					c-6.9-4.78-8.62-14.25-3.84-21.15c4.78-6.9,14.24-8.61,21.15-3.84c13.24,9.17,27.01,17.87,40.94,25.87
					c7.28,4.18,9.79,13.47,5.61,20.75c-3.7,6.44-11.4,9.15-18.16,6.79C915.17,3152.21,914.3,3151.81,913.46,3151.33z
					 M1233.99,3216.92c-0.47-8.38,5.95-15.56,14.33-16.02c16.07-0.89,32.28-2.49,48.21-4.73c8.32-1.18,16,4.61,17.17,12.93
					c1.17,8.31-4.61,16-12.92,17.17c-16.77,2.36-33.85,4.04-50.76,4.99c-2.04,0.11-4.02-0.18-5.84-0.81
					C1238.52,3228.47,1234.34,3223.25,1233.99,3216.92z M805.71,3072.4c-12.45-11.43-24.58-23.56-36.05-36.04
					c-5.68-6.18-5.28-15.79,0.9-21.47c6.18-5.69,15.8-5.28,21.48,0.9c10.91,11.86,22.43,23.38,34.25,34.23
					c6.18,5.68,6.59,15.3,0.91,21.48c-4.23,4.61-10.65,6.01-16.2,4.07C809.09,3074.9,807.29,3073.85,805.71,3072.4z M717.89,2971.75
					c-9.67-13.91-18.86-28.39-27.33-43.04c-4.2-7.27-1.71-16.56,5.56-20.77c7.28-4.2,16.57-1.72,20.76,5.56
					c8.04,13.92,16.78,27.68,25.97,40.9c4.79,6.89,3.09,16.36-3.81,21.16c-4.15,2.88-9.25,3.41-13.68,1.87
					C722.43,2976.41,719.79,2974.49,717.89,2971.75z M654.08,2854.35c-6.41-15.69-12.23-31.83-17.3-47.97
					c-2.52-8.01,1.94-16.54,9.94-19.06c8.02-2.52,16.54,1.94,19.06,9.94c4.81,15.33,10.35,30.66,16.44,45.58
					c3.18,7.77-0.55,16.64-8.32,19.82c-3.57,1.46-7.37,1.46-10.74,0.29C659.18,2861.57,655.8,2858.55,654.08,2854.35z
					 M617.41,2725.83c-2.83-16.71-4.97-33.74-6.37-50.62c-0.7-8.36,5.52-15.71,13.89-16.41c8.35-0.69,15.71,5.53,16.4,13.89
					c1.33,16.02,3.37,32.19,6.05,48.06c1.4,8.28-4.17,16.12-12.45,17.52c-2.61,0.44-5.18,0.19-7.52-0.63
					C622.34,2735.89,618.37,2731.49,617.41,2725.83z M609.87,2592.31c0.92-16.89,2.58-33.95,4.93-50.74
					c1.16-8.31,8.85-14.11,17.16-12.95c8.29,1.16,14.11,8.84,12.95,17.16c-2.23,15.94-3.81,32.16-4.69,48.2
					c-0.46,8.38-7.63,14.8-16.01,14.34c-1.46-0.08-2.86-0.36-4.18-0.82C613.8,2605.33,609.49,2599.24,609.87,2592.31z
					 M631.8,2460.54c3.37-12,7.16-24.04,11.25-35.78c1.48-4.26,3.01-8.48,4.57-12.68c2.93-7.86,11.64-12.05,19.55-8.93
					c7.87,2.93,11.87,11.68,8.93,19.55c-1.49,3.99-2.94,8.01-4.35,12.05c-3.89,11.17-7.49,22.61-10.7,34.02
					c-2.27,8.08-10.67,12.79-18.74,10.52c-0.3-0.09-0.6-0.18-0.9-0.28C633.89,2476.39,629.61,2468.32,631.8,2460.54z"/>
				<path class="st5" d="M1373.04,3208.72c2.85,0.99,6.03,1.15,9.15,0.26c7.91-2.25,15.93-4.72,23.82-7.33
					c7.97-2.63,12.3-11.23,9.67-19.2c-2.63-7.97-11.22-12.31-19.2-9.67c-7.5,2.47-15.11,4.81-22.63,6.96
					c-8.07,2.29-12.75,10.7-10.45,18.78C1364.82,3203.47,1368.53,3207.15,1373.04,3208.72z"/>
			</g>
			<g>
				<path class="st5" d="M1500,2981.17c2.58-1.59,3.87-4.64,3.21-7.6l-18.8-84.39c28.67-28.43,53.01-61.64,71.61-98.8l85.99-8.45
					c3.02-0.3,5.51-2.47,6.22-5.42l24.06-100.88c0.7-2.95-0.54-6.02-3.1-7.64l-72.92-46.35c0.17-41.55-6.56-82.17-19.31-120.48
					l54.87-66.82c1.92-2.34,2.15-5.65,0.56-8.23l-54.32-88.35c-1.59-2.58-4.64-3.87-7.6-3.21l-84.39,18.8
					c-28.43-28.67-61.64-53.01-98.8-71.61l-8.45-85.99c-0.3-3.02-2.47-5.51-5.42-6.22l-100.88-24.06c-2.95-0.7-6.02,0.54-7.64,3.1
					l-46.35,72.92c-41.55-0.17-82.17,6.56-120.48,19.31l-66.82-54.87c-2.34-1.92-5.65-2.15-8.23-0.56l-88.35,54.32
					c-2.58,1.59-3.87,4.64-3.21,7.59l18.8,84.39c-28.67,28.43-53.01,61.64-71.61,98.8l-85.99,8.45c-3.02,0.29-5.51,2.47-6.22,5.42
					l-24.06,100.88c-0.7,2.95,0.54,6.02,3.1,7.64l72.92,46.35c-0.17,41.55,6.56,82.17,19.31,120.48l-54.87,66.82
					c-1.92,2.34-2.15,5.65-0.56,8.23l54.32,88.35c1.59,2.58,4.64,3.87,7.6,3.21l84.39-18.8c28.43,28.67,61.64,53.01,98.8,71.61
					l8.45,85.99c0.3,3.01,2.47,5.51,5.42,6.21l100.88,24.06c2.95,0.7,6.02-0.54,7.64-3.1l46.35-72.92
					c41.55,0.17,82.17-6.56,120.48-19.31l66.82,54.87c2.34,1.92,5.65,2.15,8.23,0.56L1500,2981.17z"/>
				<g>
					<path class="st6" d="M1169.07,2712.82c-50.95-26.62-70.74-89.72-44.12-140.67c12.89-24.68,34.63-42.86,61.19-51.2
						c26.56-8.33,54.79-5.83,79.47,7.07c50.95,26.62,70.74,89.72,44.12,140.67c-24.22,46.35-78.63,66.91-126.61,50.2
						C1178.36,2717.25,1173.66,2715.22,1169.07,2712.82z M1193.41,2544.17c-20.37,6.39-37.03,20.33-46.92,39.25
						c-20.4,39.06-5.23,87.44,33.83,107.85c39.07,20.43,87.44,5.23,107.85-33.83c20.4-39.06,5.23-87.44-33.83-107.85
						c-3.54-1.85-7.17-3.42-10.88-4.71C1227.37,2539.28,1209.97,2538.97,1193.41,2544.17z"/>
				</g>
				<path class="st6" d="M1131.59,2860.39c8.24,2.87,16.68,5.34,25.28,7.4l0,0c2.71,0.65,5.43,1.25,8.16,1.81
					c13.45,2.76,27.1,4.44,40.74,5.02c0.19,0.01,0.37,0.02,0.56,0.02c0.53,0.02,1.05,0.04,1.58,0.05c1.03,0.04,2.06,0.06,3.08,0.09
					c2.7,0.06,5.03-1.65,5.88-4.07c0.2-0.59,0.32-1.22,0.34-1.88c0.07-3.36-2.59-6.13-5.95-6.21c-17.27-0.38-34.62-2.62-51.56-6.67
					c-84.16-20.06-147.73-81.73-174.14-157.99c-14.69-42.42-17.88-89.35-6.71-136.16c1.96-8.21,4.31-16.26,7.05-24.12
					c18.43-52.9,54.2-97.49,102.56-127.22c55.56-34.16,121.09-44.64,184.53-29.51c131.01,31.26,212.09,163.2,180.85,294.15
					c-1.93,8.07-4.25,16.02-6.97,23.81c-11.76,33.75-30.77,64.54-55.78,90.12c-0.65,0.66-1.11,1.43-1.39,2.25
					c-0.75,2.15-0.25,4.65,1.49,6.35c2.41,2.34,6.25,2.31,8.6-0.1c26.26-26.85,46.22-59.18,58.56-94.61
					c2.85-8.17,5.29-16.51,7.32-24.99c32.8-137.49-52.42-276.02-189.85-308.8c-66.6-15.89-135.4-4.88-193.72,30.98
					c-50.78,31.22-88.32,78.02-107.68,133.56c-2.87,8.25-5.35,16.7-7.4,25.32c-15.89,66.6-4.89,135.4,30.97,193.73
					C1029.21,2803.5,1076.03,2841.05,1131.59,2860.39z"/>
			</g>
		</g>
		<g>
			<g class="st4">
				<path class="st5" d="M2814.34,906.99c3.62-4.56,3.98-11.13,0.45-16.14c-6.59-9.35-13.56-18.62-20.7-27.57
					c-4.64-5.81-13.11-6.76-18.94-2.11c-5.84,4.63-6.76,13.12-2.11,18.94c6.81,8.52,13.45,17.36,19.74,26.28
					c4.28,6.08,12.69,7.53,18.78,3.25C2812.63,908.87,2813.56,907.98,2814.34,906.99z"/>
				<path class="st5" d="M2746.17,829.18c-5.2,5.32-13.72,5.43-19.05,0.24c-13.45-13.11-27.73-25.68-42.43-37.35
					c-3.1-2.46-6.24-4.9-9.42-7.31c-5.92-4.5-7.07-12.95-2.57-18.88c4.48-5.43,12.95-7.07,18.89-2.57c3.32,2.53,6.61,5.08,9.85,7.65
					c15.42,12.24,30.39,25.42,44.49,39.17c4.99,4.86,5.4,12.66,1.16,18.01C2746.8,828.49,2746.49,828.84,2746.17,829.18z
					 M2618.37,746.74c-19.67-11.47-40.22-21.84-61.09-30.78c-6.84-2.94-10-10.85-7.07-17.69c2.93-6.8,10.85-10.01,17.69-7.07
					c21.87,9.38,43.42,20.24,64.04,32.27c6.43,3.75,8.6,12,4.85,18.44c-0.33,0.56-0.7,1.1-1.1,1.6
					C2631.6,748.66,2624.23,750.15,2618.37,746.74z M2492.83,692.96c-21.85-6.3-44.32-11.28-66.8-14.83
					c-7.34-1.16-12.37-8.06-11.21-15.41c1.17-7.37,8.05-12.38,15.41-11.21c23.58,3.71,47.15,8.96,70.06,15.55
					c7.15,2.06,11.28,9.53,9.22,16.68c-0.51,1.74-1.33,3.3-2.39,4.64C2503.83,692.53,2498.24,694.51,2492.83,692.96z
					 M2357.91,671.67c-22.76-0.75-45.78-0.09-68.38,1.97c-7.42,0.67-13.97-4.79-14.64-12.2c-0.67-7.39,4.78-13.96,12.19-14.64
					c23.72-2.15,47.84-2.85,71.71-2.06c7.44,0.24,13.27,6.48,13.03,13.91c-0.11,3-1.18,5.73-2.91,7.92
					C2366.35,669.8,2362.35,671.82,2357.91,671.67z M2221.89,683.97c-22.25,4.81-44.4,11.04-65.85,18.51
					c-7.02,2.45-14.7-1.26-17.15-8.29c-2.45-7.03,1.25-14.72,8.29-17.15c22.48-7.84,45.71-14.36,69.02-19.41
					c7.27-1.57,14.44,3.05,16.02,10.32c0.89,4.11-0.2,8.18-2.62,11.24C2227.72,681.53,2225.05,683.28,2221.89,683.97z
					 M2092.97,728.91c-20.39,10.06-40.33,21.5-59.29,33.99c-6.21,4.09-14.57,2.38-18.66-3.84c-4.09-6.21-2.38-14.54,3.83-18.67
					c19.88-13.1,40.8-25.09,62.19-35.65c6.67-3.29,14.75-0.55,18.04,6.12c2.38,4.83,1.61,10.4-1.53,14.35
					C2096.35,726.72,2094.82,728,2092.97,728.91z M1979,803.99c-17.24,14.71-33.79,30.71-49.17,47.55
					c-5.03,5.49-13.55,5.87-19.04,0.85c-5.49-5.01-5.8-13.46-0.86-19.04c16.14-17.64,33.49-34.41,51.57-49.85
					c5.66-4.83,14.17-4.16,19,1.5c4.25,4.98,4.24,12.17,0.31,17.11C1980.28,802.78,1979.68,803.41,1979,803.99z M1832.46,968.34
					c-6.55-3.54-8.99-11.7-5.45-18.25c9.79-18.13,20.74-36.03,32.51-53.16c1.77-2.61,3.58-5.19,5.4-7.76
					c4.12-6.16,12.73-7.48,18.79-3.15c6.06,4.32,7.47,12.72,3.16,18.79c-1.72,2.4-3.41,4.83-5.1,7.32
					c-11.27,16.4-21.72,33.47-31.05,50.75c-0.38,0.71-0.83,1.38-1.31,1.99C1845.42,969.9,1838.29,971.5,1832.46,968.34z"/>
			</g>
			<g class="st4">
				<path class="st5" d="M2789.86,1594.53c-14.84,18.2-30.92,35.65-47.79,51.88c-5.36,5.15-13.89,4.99-19.05-0.38
					c-5.16-5.37-4.91-13.88,0.38-19.05c16.09-15.47,31.42-32.11,45.58-49.48c4.7-5.77,13.19-6.63,18.95-1.93
					c5.72,4.67,6.62,13.06,2.05,18.82C2789.94,1594.43,2789.9,1594.48,2789.86,1594.53z M2812.5,1541.43
					c-6.29-3.97-8.16-12.3-4.18-18.58c11.96-18.92,22.9-38.75,32.51-58.95c3.2-6.67,11.23-9.58,17.96-6.37
					c6.72,3.19,9.57,11.22,6.38,17.95c-10.07,21.17-21.53,41.96-34.08,61.78c-0.27,0.42-0.54,0.81-0.85,1.19
					C2826.02,1543.76,2818.38,1545.15,2812.5,1541.43z M2688.3,1692.12c-18.81,14.08-38.63,27.14-58.92,38.8
					c-6.45,3.71-14.7,1.48-18.4-4.97c-3.72-6.45-1.49-14.65,4.96-18.4c19.36-11.12,38.27-23.57,56.22-37
					c5.96-4.46,14.4-3.24,18.85,2.7c3.75,5.01,3.49,11.77-0.23,16.45C2690.08,1690.59,2689.25,1691.41,2688.3,1692.12z
					 M2874.48,1418.5c-7.06-2.35-10.88-9.98-8.53-17.04c7.06-21.24,12.89-43.11,17.31-65.04c1.48-7.28,8.59-12,15.86-10.55
					c7.3,1.47,12.02,8.58,10.55,15.87c-4.63,22.99-10.74,45.95-18.16,68.22c-0.52,1.54-1.28,2.92-2.23,4.12
					C2885.86,1418.4,2879.99,1420.33,2874.48,1418.5z M2566.2,1762.24c-21.59,9.13-43.97,17.02-66.52,23.48
					c-7.15,2.05-14.62-2.1-16.66-9.25c-2.05-7.15,2.08-14.62,9.25-16.67c21.51-6.15,42.85-13.68,63.44-22.4
					c6.85-2.89,14.76,0.31,17.66,7.17c1.99,4.69,1.1,9.89-1.87,13.63C2570.14,1759.92,2568.35,1761.33,2566.2,1762.24z
					 M2430.83,1801.04c-23.2,3.69-46.82,6.01-70.22,6.89c-7.43,0.28-13.68-5.51-13.96-12.95c-0.29-7.43,5.51-13.69,12.96-13.97
					c22.31-0.84,44.85-3.06,66.99-6.59c7.35-1.17,14.25,3.84,15.43,11.19c0.62,3.88-0.49,7.64-2.76,10.5
					C2437.23,1798.66,2434.29,1800.49,2430.83,1801.04z M2290.05,1806.3c-23.42-1.96-46.93-5.39-69.85-10.16
					c-7.29-1.52-11.96-8.66-10.44-15.94c1.51-7.28,8.66-11.95,15.93-10.44c21.86,4.56,44.27,7.82,66.6,9.68
					c7.42,0.62,12.93,7.14,12.3,14.55c-0.22,2.75-1.27,5.23-2.86,7.24C2299.02,1804.65,2294.71,1806.69,2290.05,1806.3z"/>
				<path class="st5" d="M2916.57,1278.55c1.62-2.04,2.66-4.56,2.87-7.35c0.88-11.5,1.42-23.07,1.61-34.41
					c0.12-7.44-5.8-13.58-13.24-13.71c-7.43-0.11-13.56,5.81-13.71,13.24c-0.18,10.81-0.7,21.85-1.53,32.83
					c-0.57,7.42,5,13.89,12.41,14.46C2909.62,1283.96,2913.88,1281.93,2916.57,1278.55z"/>
			</g>
			<g>
				<path class="st5" d="M2752,1081.79c-0.62-2.84-2.98-4.98-5.87-5.32l-82.47-9.67c-16.71-34.99-39.11-67.57-66.91-96.21
					l19.56-80.64c0.69-2.83-0.5-5.78-2.95-7.35l-83.85-53.75c-2.45-1.57-5.63-1.42-7.91,0.39l-65.11,51.45
					c-37.62-13.31-76.59-20.07-115.36-20.64l-43.22-70.9c-1.51-2.49-4.44-3.74-7.28-3.11l-97.3,21.28
					c-2.84,0.62-4.98,2.98-5.32,5.87l-9.67,82.47c-35,16.71-67.58,39.11-96.21,66.91l-80.64-19.56c-2.83-0.69-5.78,0.5-7.35,2.95
					l-53.75,83.85c-1.57,2.45-1.41,5.63,0.39,7.91l51.45,65.11c-13.31,37.62-20.07,76.59-20.64,115.36l-70.9,43.22
					c-2.48,1.51-3.74,4.44-3.11,7.28l21.28,97.3c0.62,2.84,2.98,4.98,5.87,5.32l82.47,9.67c16.71,34.99,39.11,67.58,66.91,96.21
					l-19.56,80.64c-0.69,2.83,0.5,5.78,2.95,7.35l83.85,53.75c2.45,1.57,5.63,1.41,7.91-0.39l65.11-51.45
					c37.62,13.31,76.59,20.07,115.36,20.64l43.22,70.9c1.51,2.49,4.44,3.74,7.28,3.11l97.3-21.28c2.84-0.62,4.98-2.98,5.32-5.87
					l9.67-82.47c35-16.71,67.58-39.11,96.21-66.91l80.64,19.56c2.83,0.68,5.78-0.5,7.35-2.95l53.75-83.85
					c1.57-2.45,1.41-5.63-0.39-7.91l-51.44-65.11c13.31-37.62,20.06-76.59,20.64-115.36l70.9-43.22c2.49-1.51,3.74-4.44,3.11-7.28
					L2752,1081.79z"/>
				<g>
					<path class="st6" d="M2405.16,1298.22c-19.85,18.64-45.78,28.41-72.99,27.54c-27.2-0.86-52.45-12.28-71.07-32.14
						c-38.45-40.98-36.37-105.49,4.6-144.06c41-38.44,105.62-36.37,144.05,4.61c18.63,19.85,28.41,45.77,27.54,72.98
						c-0.71,22.12-8.38,42.94-21.9,59.96C2412.29,1291.01,2408.87,1294.73,2405.16,1298.22z M2280.75,1275.18
						c13.7,14.61,32.27,23.01,52.29,23.65c20.01,0.64,39.08-6.56,53.68-20.26l0,0c14.59-13.72,23-32.27,23.64-52.29
						c0.65-20.01-6.56-39.08-20.25-53.68c-28.28-30.15-75.81-31.67-105.97-3.39c-2.72,2.56-5.2,5.26-7.46,8.1
						C2253.96,1205.93,2255.02,1247.76,2280.75,1275.18z"/>
				</g>
				<path class="st6" d="M2532,1382.14c5.3-6.68,10.3-13.68,15.01-21c9.33-14.54,17.19-30.05,23.37-46.13
					c0.27-0.72,0.55-1.45,0.82-2.17c2.1-5.61,0.22-11.73-4.23-15.27c-1.08-0.86-2.32-1.56-3.68-2.07
					c-6.97-2.61-14.71,0.96-17.33,7.91c-5.63,15.07-12.91,29.6-21.63,43.19l0,0.01c-0.48,0.75-0.97,1.49-1.45,2.23
					c-20.93,31.98-49.04,57.52-81.84,75.14c-17.8,9.56-37.01,16.78-57.22,21.39c-0.16,0.04-0.33,0.08-0.49,0.11
					c-0.51,0.11-1,0.23-1.51,0.33c-59.2,12.94-119.9,2.07-170.91-30.63c-6.61-4.23-12.94-8.76-19-13.57
					c-40.76-32.37-68.92-77.4-80.2-128.94c-12.95-59.2-2.06-119.89,30.64-170.9c32.7-50.97,83.32-86.24,142.51-99.2
					c59.2-12.94,119.9-2.07,170.91,30.63c6.49,4.16,12.75,8.64,18.75,13.4c26.01,20.65,47.2,46.76,61.97,76.53
					c0.91,1.83,2.18,3.37,3.69,4.56c3.96,3.14,9.54,3.92,14.37,1.52c6.66-3.33,9.39-11.39,6.08-18.07
					c-16.53-33.31-40.24-62.52-69.32-85.63c-6.72-5.33-13.71-10.34-20.97-15c-57.08-36.59-124.99-48.76-191.22-34.27
					c-66.22,14.49-122.86,53.84-159.43,110.97c-36.59,57.07-48.77,124.97-34.27,191.21c12.6,57.66,44.11,108.04,89.72,144.25
					c6.77,5.37,13.86,10.45,21.24,15.18C2306.86,1508.68,2452.08,1482.81,2532,1382.14z"/>
			</g>
		</g>
		<g>
			<g>
				<g>
					<linearGradient id="SVGID_2_" gradientUnits="userSpaceOnUse" x1="603.5689" y1="830.681" x2="4342.9922" y2="4143.6304">
						<stop  offset="0" style="stop-color:#09005D"/>
						<stop  offset="1" style="stop-color:#1A0F91"/>
					</linearGradient>
					<path class="st7" d="M507.84,1193.62l-20.66,90.15c-6.92,30.2,6.08,61.46,32.37,77.85l62.32,38.84
						c16.85,10.5,27.28,28.64,28.34,48.47c2.66,49.89,11.07,98.77,24.69,145.82c5.53,19.1,1.66,39.68-10.83,55.16l-46.14,57.22
						c-19.45,24.12-21.45,57.92-4.99,84.17l49.13,78.36c16.46,26.25,47.76,39.16,77.94,32.16l71.6-16.62
						c19.37-4.5,39.58,0.98,54.37,14.28c36.42,32.75,76.75,61.61,120.51,85.74c17.39,9.59,29.17,26.87,31.29,46.62l7.82,73.01
						c3.3,30.81,25.78,56.12,55.98,63.05l90.15,20.66c30.2,6.92,61.46-6.08,77.85-32.37l38.84-62.32
						c10.5-16.85,28.64-27.27,48.47-28.33c49.89-2.66,98.77-11.07,145.81-24.7c19.11-5.53,39.68-1.66,55.17,10.83l57.22,46.14
						c24.12,19.45,57.92,21.46,84.17,5l78.36-49.14c26.25-16.46,39.16-47.76,32.16-77.94l-16.62-71.6
						c-4.5-19.37,0.98-39.58,14.28-54.37c32.75-36.42,61.61-76.75,85.74-120.51c9.59-17.39,26.87-29.17,46.61-31.29l73.01-7.82
						c30.81-3.3,56.12-25.78,63.04-55.98l20.67-90.16c6.92-30.2-6.08-61.46-32.37-77.85l-62.32-38.84
						c-16.85-10.5-27.28-28.64-28.34-48.47c-2.66-49.89-11.07-98.77-24.69-145.82c-5.53-19.1-1.66-39.68,10.83-55.17l46.14-57.22
						c19.45-24.12,21.45-57.92,4.99-84.17l-49.13-78.36c-16.46-26.25-47.76-39.16-77.94-32.16l-71.6,16.62
						c-19.37,4.5-39.58-0.98-54.37-14.28c-36.42-32.75-76.75-61.61-120.5-85.74c-17.39-9.59-29.17-26.87-31.29-46.62l-7.82-73.01
						c-3.3-30.8-25.78-56.12-55.98-63.04l-90.16-20.67c-30.2-6.92-61.46,6.08-77.85,32.37l-38.84,62.32
						c-10.5,16.85-28.64,27.28-48.47,28.34c-49.89,2.66-98.77,11.07-145.82,24.69c-19.1,5.53-39.68,1.66-55.17-10.82l-57.22-46.14
						c-24.12-19.45-57.92-21.46-84.17-5l-78.36,49.14c-26.25,16.46-39.16,47.76-32.16,77.94l16.62,71.61
						c4.5,19.37-0.98,39.59-14.28,54.37c-32.75,36.42-61.61,76.75-85.74,120.5c-9.59,17.39-26.87,29.17-46.61,31.29l-73.01,7.82
						C540.08,1140.93,514.76,1163.42,507.84,1193.62z M752,1241.37c95.28-281.58,400.78-432.61,682.37-337.34
						c281.58,95.28,432.61,400.78,337.34,682.37c-95.28,281.58-400.79,432.61-682.37,337.34
						C807.75,1828.46,656.72,1522.96,752,1241.37z"/>
				</g>
			</g>
			<g>
				<defs>
					<path id="SVGID_3_" d="M795.16,1672.75L1258.49,623.4h1183.66l-246.36,931.58l-1034.57,395.05
						C977.68,1910.33,848.2,1801.97,795.16,1672.75z"/>
				</defs>
				<clipPath id="SVGID_4_">
					<use xlink:href="#SVGID_3_"  style="overflow:visible;"/>
				</clipPath>
				<g class="st8">
					<g>
						
							<linearGradient id="SVGID_5_" gradientUnits="userSpaceOnUse" x1="4746.1299" y1="3413.9082" x2="4885.9658" y2="3413.9082" gradientTransform="matrix(0.9987 -0.0502 0.0502 0.9987 -4051.0757 -259.7591)">
							<stop  offset="0" style="stop-color:#09005D"/>
							<stop  offset="1" style="stop-color:#1A0F91"/>
						</linearGradient>
						<path class="st9" d="M877.23,2861.27c0,0-14.29,25.24-14.75,93.93c-0.04,6.4,5.28,11.58,11.68,11.26l121.37-6.1
							c4.88-0.25,8.13-5.21,6.33-9.76c-8.17-20.69-32.26-70.93-81.71-97.84L877.23,2861.27z"/>
						
							<linearGradient id="SVGID_6_" gradientUnits="userSpaceOnUse" x1="4760.3101" y1="3348.9272" x2="4817.0244" y2="3348.9272" gradientTransform="matrix(0.9987 -0.0502 0.0502 0.9987 -4051.0757 -259.7591)">
							<stop  offset="0" style="stop-color:#FEBBBA"/>
							<stop  offset="1" style="stop-color:#FF928E"/>
						</linearGradient>
						<path class="st10" d="M869.62,2815.13l9.76,57.22c0.84,4.94,4.93,8.72,9.93,9.04c6.68,0.43,16.35,0.48,25.65-1.53
							c8.45-1.83,14.21-9.74,13.77-18.37l-2.79-55.57L869.62,2815.13z"/>
						
							<linearGradient id="SVGID_7_" gradientUnits="userSpaceOnUse" x1="5144.0317" y1="2578.8354" x2="5363.4346" y2="2578.8354" gradientTransform="matrix(0.9993 0.037 -0.037 0.9993 -3893.1482 128.6885)">
							<stop  offset="0" style="stop-color:#09005D"/>
							<stop  offset="1" style="stop-color:#1A0F91"/>
						</linearGradient>
						<path class="st11" d="M1176.6,2843.53c0,0-24.58,35.27-25.93,84.88c-0.32,11.69,9.12,21.35,20.8,21.79l188.61,6.99
							c8.83,0.33,12.84-10.89,5.8-16.23c-34.76-26.39-103.17-75.81-153.23-96.09L1176.6,2843.53z"/>
						
							<linearGradient id="SVGID_8_" gradientUnits="userSpaceOnUse" x1="5149.9888" y1="2658.3081" x2="5206.3892" y2="2658.3081" gradientTransform="matrix(0.9998 0.0197 -0.0197 0.9998 -3933.3213 56.7691)">
							<stop  offset="0" style="stop-color:#FEBBBA"/>
							<stop  offset="1" style="stop-color:#FF928E"/>
						</linearGradient>
						<path class="st12" d="M1163.81,2788.3l13.26,71.45c1.48,7.99,9.16,13.5,17.13,11.88c4.84-0.98,10.57-2.93,16.73-6.61
							c5.85-3.5,8.91-10.31,7.86-17.05l-13.47-86.51L1163.81,2788.3z"/>
						
							<linearGradient id="SVGID_9_" gradientUnits="userSpaceOnUse" x1="4725.0464" y1="2823.4583" x2="5109.5732" y2="2823.4583" gradientTransform="matrix(0.9987 -0.0502 0.0502 0.9987 -4051.0757 -259.7591)">
							<stop  offset="0" style="stop-color:#09005D"/>
							<stop  offset="1" style="stop-color:#1A0F91"/>
						</linearGradient>
						<path class="st13" d="M845.69,1803.28c0,0-48.65,47.45-55.52,101.93c-6.86,54.48,74.01,930.35,74.01,930.35
							s51.34,5.91,76.78-11.31c0,0,2.48-571.19,19.52-704.01c0,0,153.76,583.82,193.5,688.71c0,0,49.35,3.5,64.69-6.63
							c0,0-70.97-763.25-118.65-897.18L845.69,1803.28z"/>
						<path class="st14" d="M957.49,2101.07c0.58,0.04,1.16-0.03,1.74-0.21c2.53-0.8,3.94-3.5,3.14-6.03l-25.8-81.86
							c-0.36-1.15-1.15-2.13-2.2-2.73l-48.23-27.62c-2.3-1.31-5.24-0.52-6.57,1.79c-1.32,2.31-0.52,5.24,1.79,6.57l46.6,26.68
							l25.23,80.07C953.81,2099.67,955.56,2100.95,957.49,2101.07z"/>
						
							<linearGradient id="SVGID_10_" gradientUnits="userSpaceOnUse" x1="1586.4042" y1="250.88" x2="984.3546" y2="1239.5688" gradientTransform="matrix(0.9981 0.062 -0.062 0.9981 401.7931 -7.284)">
							<stop  offset="0" style="stop-color:#4F52FF"/>
							<stop  offset="1" style="stop-color:#4042E2"/>
						</linearGradient>
						<path class="st15" d="M1322.59,1270.85c-215.22-7.01-269,40.16-269,40.16l111.17,157.42c0,0,210.38-14.75,355.43-138.64
							c-29.77-28.99-51.07-61.62-64.97-87.16C1417.13,1260.75,1372.79,1272.49,1322.59,1270.85z"/>
						
							<linearGradient id="SVGID_11_" gradientUnits="userSpaceOnUse" x1="1261.8158" y1="1051.3324" x2="1786.5308" y2="692.3175" gradientTransform="matrix(0.9981 0.062 -0.062 0.9981 401.7931 -7.284)">
							<stop  offset="0" style="stop-color:#FEBBBA"/>
							<stop  offset="1" style="stop-color:#FF928E"/>
						</linearGradient>
						<path class="st16" d="M1642.39,939.38c-0.63-6.85-10.04-8.25-12.64-1.88l-24.41,59.73c-4.72,11.54-5.78,24.25-3.03,36.41
							l11.3,33.48c3.7,16.42,0.23,33.61-9.61,47.27c-23.55,32.68-74.18,92.74-148.77,128.23c13.89,25.54,35.2,58.16,64.97,87.16
							c53.22-45.46,97.66-105.59,119.66-185.11c12.24-4.44,19.95-16.56,18.8-29.53L1642.39,939.38z"/>
						
							<linearGradient id="SVGID_12_" gradientUnits="userSpaceOnUse" x1="5213.894" y1="1780.8832" x2="5099.1543" y2="2867.5457" gradientTransform="matrix(0.9987 -0.0502 0.0502 0.9987 -4051.0757 -259.7591)">
							<stop  offset="0" style="stop-color:#4F52FF"/>
							<stop  offset="1" style="stop-color:#4042E2"/>
						</linearGradient>
						<path class="st17" d="M1397.88,1361.58c-79.54-77.5-225.1-107.01-309.06-117.91c-36.78-4.78-71.7,17.31-82.87,52.69
							c-32.38,102.54-121.05,369.53-138.52,415.53c-14.34,37.74-29.43,74.65-39.04,97.74c-5.74,13.79,0.68,29.63,14.44,35.43
							c71.7,30.22,199.59,62.06,251.4,74.39c11.4,2.71,22.16-6.29,21.57-17.99c-0.5-9.92,1.71-19.8,6.39-28.56l177.2-332.02
							c127.27,127.6,233.45,134.51,313.08,101.18c-15.76-41.46-26.8-83.23-33.21-125.31
							C1458.42,1502.23,1397.88,1361.58,1397.88,1361.58z"/>
						
							<linearGradient id="SVGID_13_" gradientUnits="userSpaceOnUse" x1="5898.7876" y1="1717.9457" x2="5445.8735" y2="2281.4143" gradientTransform="matrix(0.9987 -0.0502 0.0502 0.9987 -4051.0757 -259.7591)">
							<stop  offset="0" style="stop-color:#FEBBBA"/>
							<stop  offset="1" style="stop-color:#FF928E"/>
						</linearGradient>
						<path class="st18" d="M1776.16,1484.33l-23.07-27.74c-67.58,51.59-125.52,65.93-173.83,60.13
							c6.41,42.09,17.45,83.86,33.21,125.31C1717.37,1598.13,1776.16,1484.33,1776.16,1484.33z"/>
						
							<linearGradient id="SVGID_14_" gradientUnits="userSpaceOnUse" x1="5984.6567" y1="1786.9583" x2="5531.7354" y2="2350.4355" gradientTransform="matrix(0.9987 -0.0502 0.0502 0.9987 -4051.0757 -259.7591)">
							<stop  offset="0" style="stop-color:#FEBBBA"/>
							<stop  offset="1" style="stop-color:#FF928E"/>
						</linearGradient>
						<path class="st19" d="M1760.94,1485.62l122.05-1.38l109-68.28c-16.61-9.28-106.6,15.92-106.6,15.92s-95.89-9.61-121.65-8.34
							c-21.39,1.05-16.79,31.66-14.62,42c0.44,2.11,0.79,3.38,0.79,3.38L1760.94,1485.62z"/>
						
							<linearGradient id="SVGID_15_" gradientUnits="userSpaceOnUse" x1="5389.2432" y1="1377.4341" x2="4950.6001" y2="2183.3982" gradientTransform="matrix(0.9987 -0.0502 0.0502 0.9987 -4051.0757 -259.7591)">
							<stop  offset="0" style="stop-color:#FEBBBA"/>
							<stop  offset="1" style="stop-color:#FF928E"/>
						</linearGradient>
						<path class="st20" d="M1195.76,1088.6l-56.38,160.06c0,0,76.42,47.4,135.58,39.55l24.98-142.63L1195.76,1088.6z"/>
						<g>
							
								<linearGradient id="SVGID_16_" gradientUnits="userSpaceOnUse" x1="14173.5898" y1="2183.531" x2="13933.3682" y2="2367.3374" gradientTransform="matrix(0.9962 -0.086 0.086 0.9962 -12980.7959 76.4891)">
								<stop  offset="0" style="stop-color:#FEBBBA"/>
								<stop  offset="1" style="stop-color:#FF928E"/>
							</linearGradient>
							<path class="st21" d="M1310.63,948.9c0,0,50.17,92.55,57.34,142.78c7.17,50.23,20.88,82.04-36.6,97.25
								c-57.48,15.21-109.16-9.62-140.14-57.6c0,0-48.43-73.87-41.81-106.4C1156.04,992.39,1310.63,948.9,1310.63,948.9z"/>
							
								<linearGradient id="SVGID_17_" gradientUnits="userSpaceOnUse" x1="14004.4766" y1="2037.9932" x2="14228.2197" y2="2326.0618" gradientTransform="matrix(0.9962 -0.086 0.086 0.9962 -12980.7959 76.4891)">
								<stop  offset="0" style="stop-color:#E1473D"/>
								<stop  offset="1" style="stop-color:#E9605A"/>
							</linearGradient>
							<path class="st22" d="M1208.05,1093.46l3.19-1.75c4.07-2.23,5.44-7.42,2.96-11.34c-9.6-15.19-28.8-50.24-8.8-60.53
								c25.76-13.26,129.7-43.98,149.29-83.5c18.82-37.98-4.64-82.87-35-93.6c-2.03-0.72-4.28,0.18-5.11,2.17l-2.04,4.82
								c-1.39,3.3-6.09,3.22-7.38-0.12c-1.24-3.21-5.67-3.47-7.23-0.41c-6.05,11.84-23.42,31.68-73.27,45.41
								c-70.85,19.51-115.93,52.76-112.82,102.61c0.2,3.17-3.01,5.22-5.85,3.8c-5.6-2.78-14.23-3.57-24.78,6.98
								c-18.34,18.33-6.52,60.76,39.89,92.5c2.2,1.51,2.47,4.72,0.36,6.37c-7.42,5.79-18.08,18.98,13.68,32.58
								c32.85,14.07,56.17,10.67,65.07,8.4c2.21-0.56,3.47-2.86,2.79-5.04l-13.41-42.89c-0.76-2.43,0.92-4.93,3.46-5.15
								L1208.05,1093.46z"/>
							
								<linearGradient id="SVGID_18_" gradientUnits="userSpaceOnUse" x1="14143.791" y1="2144.594" x2="13903.5703" y2="2328.3997" gradientTransform="matrix(0.9962 -0.086 0.086 0.9962 -12980.7959 76.4891)">
								<stop  offset="0" style="stop-color:#FEBBBA"/>
								<stop  offset="1" style="stop-color:#FF928E"/>
							</linearGradient>
							<path class="st23" d="M1210.66,1102.53c0,0-21.28-60.05-47.33-40.45c-26.05,19.6,20.24,67.59,42.58,67.98L1210.66,1102.53z"
								/>
						</g>
					</g>
					<g>
						<g>
							
								<linearGradient id="SVGID_19_" gradientUnits="userSpaceOnUse" x1="1449.75" y1="671.9742" x2="1693.1956" y2="671.9742" gradientTransform="matrix(0.9981 0.062 -0.062 0.9981 401.7931 -7.284)">
								<stop  offset="0" style="stop-color:#2B3582"/>
								<stop  offset="1" style="stop-color:#150E42"/>
							</linearGradient>
							<path class="st24" d="M2035.83,871.24c-0.07,0-0.13,0-0.2,0c-4.63-0.11-8.31-3.95-8.2-8.59
								c0.03-1.24,2.24-124.22-47.67-170.82c-14.23-13.28-30.99-18.82-51.17-16.98c-104.23,9.57-110.49,172.57-110.54,174.21
								c-0.14,4.63-3.98,8.27-8.65,8.13c-4.64-0.14-8.28-4.02-8.13-8.65c0.06-1.81,1.55-44.79,17.24-89.78
								c21.36-61.28,58.9-96.08,108.56-100.64c24.92-2.3,46.51,4.93,64.19,21.45c55.41,51.75,53.11,178.11,52.98,183.47
								C2044.12,867.61,2040.38,871.24,2035.83,871.24z"/>
						</g>
						<path class="st25" d="M1565.91,1377.54l121.79-575.72l322.3,14.67l65.35,625.1l-483.57-30.03
							C1574.58,1410.5,1562.34,1394.41,1565.91,1377.54z"/>
						<path class="st25" d="M2072.19,825.71l-62.2-9.21l65.35,625.1l62.08,3.86c12.59,0.78,22.71-10.2,20.91-22.68L2072.19,825.71z"
							/>
						<g>
							
								<linearGradient id="SVGID_20_" gradientUnits="userSpaceOnUse" x1="1380.4357" y1="670.6458" x2="1623.8812" y2="670.6458" gradientTransform="matrix(0.9981 0.062 -0.062 0.9981 401.7931 -7.284)">
								<stop  offset="0" style="stop-color:#2B3582"/>
								<stop  offset="1" style="stop-color:#150E42"/>
							</linearGradient>
							<path class="st26" d="M1966.73,865.62c-0.07,0-0.13,0-0.2,0c-4.63-0.11-8.31-3.95-8.2-8.59
								c0.03-1.24,2.24-124.22-47.67-170.82c-14.23-13.28-30.99-18.82-51.17-16.98c-104.23,9.57-110.49,172.57-110.54,174.21
								c-0.14,4.63-3.96,8.22-8.65,8.13c-4.64-0.14-8.28-4.02-8.13-8.65c0.06-1.81,1.55-44.79,17.24-89.78
								c21.36-61.28,58.9-96.08,108.56-100.64c24.9-2.29,46.5,4.93,64.19,21.45c55.41,51.75,53.11,178.11,52.98,183.47
								C1975.02,861.99,1971.28,865.62,1966.73,865.62z"/>
						</g>
					</g>
				</g>
			</g>
			<g>
				<path class="st2" d="M1810.49,1075.29c-11.19,63.22-44,90.24-74.25,84.89c-30.92-5.47-50.36-42.22-40.5-99.95
					c10.04-56.76,40.78-89.86,74.76-83.85C1805.51,982.58,1820.04,1021.31,1810.49,1075.29z M1714.64,1286.27l182.97-287.4
					l23.79,4.21l-182.97,287.4L1714.64,1286.27z M1728.01,1064.04c-6.46,34.55-1.77,61.55,14.88,64.49
					c16.66,2.95,29.05-19.6,35.5-56.05c5.88-33.22,3.82-61.19-14.19-64.37C1747.21,1005.1,1733.97,1030.35,1728.01,1064.04z
					 M1940.7,1226.81c-11.1,62.75-43.66,90.3-74.25,84.89c-30.58-5.41-50.36-42.22-40.07-100.36c9.96-56.29,40.78-89.86,74.42-83.91
					C1935.8,1133.63,1950.25,1172.83,1940.7,1226.81z M1858.23,1215.55c-6.38,34.08-1.78,61.55,14.87,64.49
					c16.99,3.01,29.05-19.6,35.5-56.05c5.96-33.68,3.81-61.19-14.19-64.37C1877.41,1156.61,1864.18,1181.87,1858.23,1215.55z"/>
			</g>
		</g>
		<g>
			<g>
				
					<linearGradient id="SVGID_21_" gradientUnits="userSpaceOnUse" x1="-1886.8507" y1="566.0028" x2="1852.5789" y2="3878.9575" gradientTransform="matrix(-0.9684 -0.2493 -0.2493 0.9684 2901.6458 344.8383)">
					<stop  offset="0" style="stop-color:#09005D"/>
					<stop  offset="1" style="stop-color:#1A0F91"/>
				</linearGradient>
				<path class="st27" d="M1704.82,2358.28l-5.64,89.72c-1.89,30.05,15.5,58,43.3,69.58l65.88,27.45
					c17.82,7.42,30.67,23.18,34.8,42.03c10.4,47.44,26.16,93,46.63,135.98c8.31,17.45,7.84,37.8-1.7,54.61l-35.26,62.14
					c-14.86,26.19-11.47,58.93,8.45,81.52l59.46,67.43c19.92,22.59,51.97,30.05,79.82,18.59l66.07-27.2
					c17.87-7.36,38.12-5.28,54.4,5.15c40.08,25.69,83.31,47.02,129.07,63.28c18.19,6.46,32.21,21.18,37.34,39.79l18.99,68.8
					c8.01,29.03,33.56,49.78,63.61,51.66l89.72,5.64c30.05,1.89,58-15.5,69.58-43.3l27.45-65.88c7.42-17.82,23.18-30.67,42.03-34.8
					c47.44-10.4,93-26.16,135.97-46.63c17.46-8.31,37.8-7.84,54.62,1.7l62.14,35.26c26.19,14.86,58.93,11.47,81.51-8.45l67.43-59.46
					c22.59-19.92,30.05-51.97,18.59-79.82l-27.2-66.07c-7.36-17.88-5.29-38.12,5.15-54.4c25.69-40.08,47.02-83.31,63.28-129.07
					c6.46-18.19,21.18-32.21,39.79-37.34l68.8-18.99c29.03-8.01,49.77-33.56,51.66-63.61l5.64-89.73
					c1.89-30.05-15.5-57.99-43.29-69.58l-65.89-27.45c-17.82-7.42-30.67-23.18-34.8-42.03c-10.4-47.44-26.16-92.99-46.63-135.98
					c-8.31-17.45-7.84-37.8,1.7-54.62l35.26-62.14c14.86-26.19,11.47-58.93-8.45-81.51l-59.46-67.43
					c-19.92-22.59-51.97-30.05-79.82-18.58l-66.07,27.2c-17.87,7.36-38.12,5.28-54.4-5.15c-40.08-25.69-83.31-47.02-129.07-63.28
					c-18.19-6.46-32.21-21.18-37.34-39.79l-18.99-68.8c-8.01-29.03-33.56-49.78-63.61-51.66l-89.73-5.64
					c-30.05-1.89-57.99,15.5-69.58,43.3l-27.45,65.89c-7.42,17.82-23.18,30.67-42.03,34.8c-47.43,10.4-93,26.16-135.98,46.62
					c-17.45,8.31-37.8,7.84-54.62-1.7l-62.14-35.26c-26.19-14.86-58.93-11.47-81.52,8.45l-67.43,59.46
					c-22.59,19.91-30.05,51.97-18.58,79.81l27.2,66.07c7.36,17.88,5.29,38.12-5.15,54.4c-25.69,40.08-47.02,83.31-63.28,129.07
					c-6.46,18.19-21.18,32.21-39.79,37.34l-68.8,18.99C1727.46,2302.68,1706.71,2328.23,1704.82,2358.28z M1946.53,2365.68
					c47.09-285.07,316.35-478,601.43-430.91c285.07,47.09,478,316.36,430.91,601.43c-47.09,285.07-316.36,478-601.43,430.91
					C2092.36,2920.02,1899.44,2650.75,1946.53,2365.68z"/>
			</g>
			<g>
				<defs>
					<path id="SVGID_22_" d="M2103.37,2886.76l-434.9-760.75l998.04-718.84l511.33,717.88l-438.61,771.89
						C2587.71,2997.02,2364.09,2998.65,2103.37,2886.76z"/>
				</defs>
				<clipPath id="SVGID_23_">
					<use xlink:href="#SVGID_22_"  style="overflow:visible;"/>
				</clipPath>
				<g class="st28">
					<linearGradient id="SVGID_24_" gradientUnits="userSpaceOnUse" x1="2573.3572" y1="1624.0374" x2="2729.5378" y2="2364.6365">
						<stop  offset="0" style="stop-color:#4F52FF"/>
						<stop  offset="1" style="stop-color:#4042E2"/>
					</linearGradient>
					<path class="st29" d="M2452.33,1763.07c0,0-26.09-182.92,176.16-119.3c0,0,101.24-8.56,98.99,86.2c0,0,61.14,47.48,7.6,125.47
						c0,0,142.11-34.47,208.68,66.76c62.63,95.24,7.49,314.74-74.79,332.54c0,0,66.5,42.1,29.92,113.56
						c-36.58,71.46-162.71,101.59-247.97,4.6c0,0-265.18,14.27-245.5-170.73c0,0-115.95-88.34,24.2-231.58
						S2452.33,1763.07,2452.33,1763.07z"/>
					
						<linearGradient id="SVGID_25_" gradientUnits="userSpaceOnUse" x1="675.3627" y1="2360.0542" x2="954.4702" y2="2215.5164" gradientTransform="matrix(0.9356 0.353 -0.353 0.9356 1877.603 -34.4284)">
						<stop  offset="0" style="stop-color:#FEBBBA"/>
						<stop  offset="1" style="stop-color:#FF928E"/>
					</linearGradient>
					<path class="st30" d="M1979.12,2235.35c0,0-13.52,203.54,141.98,258.75s286.84-240.43,286.84-240.43l-24.16,321.52
						c0,0-120.5,141.77-325.54,30.33c-205.04-111.44-163.09-361.08-163.09-361.08s-122.8-18.63-91.13-141.96
						c2.17-8.46,13.6-9.89,17.8-2.23c15.55,28.35,48.36,76.49,95.57,85.24C1985.11,2198.03,1979.12,2235.35,1979.12,2235.35z"/>
					<path class="st25" d="M2408.6,2178.94c42.35-9.19,164.63-22.72,271.02,91.97c18.04,19.45,23.87,47.33,14.95,72.32
						c-39.6,110.94-145.11,459.58-85.16,610c0,0-144.21,127.71-272.45,5.55c0,0-34.44-291.75-105.76-415.56
						c-49.24-85.47,112.29-297.84,152.96-349.02C2390.32,2186.46,2398.92,2181.04,2408.6,2178.94z"/>
					
						<linearGradient id="SVGID_26_" gradientUnits="userSpaceOnUse" x1="1325.3243" y1="1984.8177" x2="1358.5511" y2="1748.908" gradientTransform="matrix(0.9356 0.353 -0.353 0.9356 1877.603 -34.4284)">
						<stop  offset="0" style="stop-color:#FEBBBA"/>
						<stop  offset="1" style="stop-color:#FF928E"/>
					</linearGradient>
					<path class="st31" d="M2540.39,1962.66c0,0,47.74,177.89,46.4,254.62c0,0-70.04,25.5-129.74-31.38c0,0,6.77-173.44-0.49-205.16
						L2540.39,1962.66z"/>
					<g>
						
							<linearGradient id="SVGID_27_" gradientUnits="userSpaceOnUse" x1="1173.0005" y1="1479.3293" x2="1483.6744" y2="1836.5211" gradientTransform="matrix(0.9356 0.353 -0.353 0.9356 1877.603 -34.4284)">
							<stop  offset="0" style="stop-color:#FEBBBA"/>
							<stop  offset="1" style="stop-color:#FF928E"/>
						</linearGradient>
						<path class="st32" d="M2473.74,1719.99c0,0-177.52,211.58-86.89,284.1c90.63,72.52,216.98-77.83,216.98-77.83
							s46.69-119.73,11.08-164.35C2579.31,1717.29,2473.74,1719.99,2473.74,1719.99z"/>
						<linearGradient id="SVGID_28_" gradientUnits="userSpaceOnUse" x1="2547.3191" y1="1629.5288" x2="2703.4998" y2="2370.1277">
							<stop  offset="0" style="stop-color:#4F52FF"/>
							<stop  offset="1" style="stop-color:#4042E2"/>
						</linearGradient>
						<path class="st33" d="M2552,1672.22c0,0-74.9,11.7-87.8,44.18c-12.9,32.47,99.3,72.25,131.3,76.25l15.43,136.29
							c0,0,86.31-120.37,61.69-195.68C2648,1657.95,2552,1672.22,2552,1672.22z"/>
						
							<linearGradient id="SVGID_29_" gradientUnits="userSpaceOnUse" x1="1250.6202" y1="1411.8145" x2="1561.2935" y2="1769.0054" gradientTransform="matrix(0.9356 0.353 -0.353 0.9356 1877.603 -34.4284)">
							<stop  offset="0" style="stop-color:#FEBBBA"/>
							<stop  offset="1" style="stop-color:#FF928E"/>
						</linearGradient>
						<path class="st34" d="M2574.08,1907.37c0,0,67.93-67.32,89.05-18.34c21.12,48.97-62.49,78-88.69,52.73L2574.08,1907.37z"/>
					</g>
					
						<linearGradient id="SVGID_30_" gradientUnits="userSpaceOnUse" x1="1098.3914" y1="2382.8845" x2="1925.7559" y2="1281.3951" gradientTransform="matrix(0.9356 0.353 -0.353 0.9356 1877.603 -34.4284)">
						<stop  offset="0" style="stop-color:#FEBBBA"/>
						<stop  offset="1" style="stop-color:#FF928E"/>
					</linearGradient>
					<path class="st35" d="M1878.8,2197.5c0,0,32.14,31.68,47.2,28.83c39.02-7.37,111.33-14.2,144.58,9.83
						c46.08,33.3,85.6,151.04,139.76,243.94c54.17,92.9,222.93,186.3,321.68,128.54c98.75-57.76,32.34-280.65,131.22-301.16
						s74.39,271.13,43.45,331.37s-170.49,215.15-394.82,98.15c-224.33-117-268.47-411.21-268.47-411.21s-70.08-17.19-107.05-33.84
						C1899.38,2275.31,1878.8,2197.5,1878.8,2197.5z"/>
				</g>
			</g>
		</g>
	</g>
</g>
</svg>
