<svg width="30" height="24" viewBox="0 0 30 24" fill="none" xmlns="http://www.w3.org/2000/svg">
<path d="M26.3349 21.0074H23.4451V8.36493L14.776 13.7831L6.10683 8.36493V21.0074H3.21711V3.66914H4.95094L14.776 9.80979L24.601 3.66914H26.3349V21.0074ZM26.3349 0.779419H3.21711C1.61332 0.779419 0.327393 2.06534 0.327393 3.66914V21.0074C0.327393 21.7738 0.631844 22.5089 1.17377 23.0508C1.7157 23.5927 2.45071 23.8972 3.21711 23.8972H26.3349C27.1013 23.8972 27.8363 23.5927 28.3782 23.0508C28.9201 22.5089 29.2246 21.7738 29.2246 21.0074V3.66914C29.2246 2.90274 28.9201 2.16772 28.3782 1.6258C27.8363 1.08387 27.1013 0.779419 26.3349 0.779419Z" fill="#092C4C"/>
</svg>
