<svg width="27" height="27" viewBox="0 0 27 27" fill="none" xmlns="http://www.w3.org/2000/svg">
<path d="M24.9064 9.25542C25.166 9.25542 25.4198 9.17806 25.6356 9.03312C25.8514 8.88819 26.0197 8.68219 26.119 8.44117C26.2183 8.20016 26.2443 7.93495 26.1937 7.67908C26.143 7.42322 26.018 7.1882 25.8345 7.00373C25.6509 6.81926 25.4171 6.69364 25.1625 6.64275C24.9079 6.59185 24.644 6.61797 24.4042 6.71781C24.1643 6.81764 23.9594 6.9867 23.8151 7.20361C23.6709 7.42052 23.5939 7.67554 23.5939 7.93641C23.5939 8.28623 23.7322 8.62173 23.9784 8.86909C24.2245 9.11645 24.5583 9.25542 24.9064 9.25542ZM20.969 9.25542C21.2286 9.25542 21.4823 9.17806 21.6981 9.03312C21.914 8.88819 22.0822 8.68219 22.1815 8.44117C22.2809 8.20016 22.3069 7.93495 22.2562 7.67908C22.2056 7.42322 22.0806 7.1882 21.897 7.00373C21.7135 6.81926 21.4796 6.69364 21.225 6.64275C20.9704 6.59185 20.7065 6.61797 20.4667 6.71781C20.2269 6.81764 20.0219 6.9867 19.8777 7.20361C19.7335 7.42052 19.6565 7.67554 19.6565 7.93641C19.6565 8.28623 19.7948 8.62173 20.0409 8.86909C20.287 9.11645 20.6209 9.25542 20.969 9.25542ZM17.0315 9.25542C17.2911 9.25542 17.5449 9.17806 17.7607 9.03312C17.9765 8.88819 18.1448 8.68219 18.2441 8.44117C18.3434 8.20016 18.3694 7.93495 18.3188 7.67908C18.2681 7.42322 18.1431 7.1882 17.9596 7.00373C17.776 6.81926 17.5422 6.69364 17.2876 6.64275C17.033 6.59185 16.7691 6.61797 16.5293 6.71781C16.2894 6.81764 16.0844 6.9867 15.9402 7.20361C15.796 7.42052 15.719 7.67554 15.719 7.93641C15.719 8.28623 15.8573 8.62173 16.1035 8.86909C16.3496 9.11645 16.6834 9.25542 17.0315 9.25542ZM22.8589 14.5314C22.5702 14.5314 22.2683 14.4391 21.9796 14.3732C21.3949 14.2437 20.8202 14.0718 20.2602 13.8588C19.6514 13.6361 18.9821 13.6477 18.3812 13.8912C17.7803 14.1347 17.2902 14.593 17.0053 15.1778L16.7165 15.7713C15.4362 15.0535 14.2576 14.1663 13.2122 13.1333C12.1893 12.0833 11.3069 10.9038 10.5872 9.62474L11.1647 9.25542C11.7466 8.96908 12.2026 8.47658 12.4449 7.87269C12.6872 7.2688 12.6987 6.59618 12.4772 5.98428C12.2688 5.4203 12.0978 4.84307 11.9653 4.25638C11.8997 3.95301 11.8472 3.66283 11.8078 3.35945C11.6485 2.43037 11.1642 1.58901 10.4424 0.986875C9.72048 0.384745 8.80841 0.0614196 7.87038 0.0751256H3.93293C3.37807 0.0743951 2.82933 0.191525 2.32267 0.418838C1.81601 0.64615 1.36287 0.978511 0.992967 1.39413C0.617188 1.81951 0.337083 2.3213 0.171742 2.86532C0.00640044 3.40933 -0.0402898 3.98277 0.0348535 4.54656C0.726154 10.0693 3.22731 15.2036 7.14379 19.1395C11.0603 23.0755 16.1692 25.5891 21.6646 26.2838C21.835 26.2969 22.0061 26.2969 22.1765 26.2838C23.2207 26.2838 24.2222 25.8669 24.9607 25.1248C25.6991 24.3827 26.1139 23.3762 26.1139 22.3268V18.3698C26.1003 17.4494 25.7678 16.5626 25.1737 15.862C24.5796 15.1614 23.761 14.6909 22.8589 14.5314ZM23.5021 22.4455C23.5042 22.6367 23.465 22.8261 23.3871 23.0005C23.3092 23.175 23.1945 23.3303 23.0509 23.4558C22.9073 23.5812 22.7383 23.6738 22.5556 23.7271C22.3729 23.7804 22.1808 23.7932 21.9927 23.7645C17.0921 23.1218 12.539 20.8734 9.03849 17.3673C5.54072 13.8256 3.3072 9.22038 2.68607 4.26957C2.65756 4.07612 2.67221 3.87871 2.72896 3.69165C2.78571 3.50459 2.88314 3.33255 3.01419 3.18798C3.13572 3.04894 3.285 2.93716 3.45233 2.85989C3.61966 2.78263 3.80129 2.74162 3.98543 2.73952H7.92288C8.2281 2.7327 8.52613 2.83301 8.76569 3.0232C9.00524 3.21339 9.17133 3.48155 9.23537 3.78154C9.28786 4.14207 9.35349 4.4982 9.43224 4.84993C9.58386 5.54524 9.78564 6.22853 10.036 6.89439L8.1985 7.75175C8.0414 7.82419 7.90007 7.92711 7.78265 8.05459C7.66523 8.18207 7.57403 8.3316 7.51427 8.49461C7.45451 8.65761 7.42738 8.83087 7.43444 9.00444C7.44149 9.17801 7.4826 9.34847 7.55539 9.50603C9.44431 13.5722 12.6967 16.8408 16.7428 18.7391C17.0623 18.871 17.4207 18.871 17.7403 18.7391C18.066 18.6173 18.3303 18.3706 18.4753 18.0532L19.3021 16.2066C19.9806 16.4504 20.6731 16.6531 21.3758 16.8133C21.7171 16.8925 22.0846 16.9584 22.439 17.0112C22.735 17.0782 22.9988 17.2462 23.1855 17.4867C23.3721 17.7272 23.4701 18.0253 23.4627 18.3302L23.5021 22.4455Z" fill="#092C4C"/>
</svg>
