<svg width="27" height="27" viewBox="0 0 27 27" fill="none" xmlns="http://www.w3.org/2000/svg">
<path d="M24.477 6.12097C20.5549 0.0745072 12.5475 -1.72309 6.33758 2.03552C0.291124 5.79413 -1.66989 13.965 2.25214 20.0115L2.57897 20.5017L1.27163 25.4043L6.17417 24.0969L6.66442 24.4238C8.78885 25.5677 11.0767 26.2214 13.3646 26.2214C15.8158 26.2214 18.2671 25.5677 20.3915 24.2603C26.438 20.3383 28.2356 12.3308 24.477 6.12097ZM21.0452 18.7041C20.3915 19.6846 19.5744 20.3383 18.4305 20.5017C17.7768 20.5017 16.9597 20.8286 13.6914 19.5212C10.9133 18.2139 8.62543 16.0895 6.99126 13.6382C6.01075 12.4943 5.5205 11.0235 5.35708 9.55274C5.35708 8.2454 5.84733 7.10147 6.66442 6.28439C6.99126 5.95755 7.31809 5.79413 7.64493 5.79413H8.46202C8.78885 5.79413 9.11569 5.79413 9.27911 6.4478C9.60594 7.26489 10.423 9.22591 10.423 9.38932C10.5864 9.55274 10.5864 9.87958 10.423 10.043C10.5864 10.3698 10.423 10.6967 10.2596 10.8601C10.0962 11.0235 9.93278 11.3503 9.76936 11.5138C9.44252 11.6772 9.27911 12.004 9.44252 12.3308C10.0962 13.3114 10.9133 14.2919 11.7304 15.1089C12.7109 15.926 13.6914 16.5797 14.8353 17.07C15.1621 17.2334 15.489 17.2334 15.6524 16.9065C15.8158 16.5797 16.6329 15.7626 16.9597 15.4358C17.2866 15.1089 17.45 15.1089 17.7768 15.2724L20.3915 16.5797C20.7184 16.7431 21.0452 16.9065 21.2086 17.07C21.372 17.5602 21.372 18.2139 21.0452 18.7041Z" fill="#092C4C"/>
</svg>
